<svg version="1.1" xmlns="http://www.w3.org/2000/svg" xmlns:xlink="http://www.w3.org/1999/xlink" width="1452" height="697"><defs/><g><g transform="translate(-494,-150) scale(1,1)"><rect fill="#C0C0C0" stroke="none" x="783" y="327" width="233" height="100" opacity="0.2"/></g><g transform="translate(-494,-150) scale(1,1)"><rect fill="#ffffff" stroke="none" x="776" y="320" width="233" height="100"/></g><g transform="translate(-494,-150) scale(1,1)"><path fill="none" stroke="#000000" d="M 776 320 L 1009 320 L 1009 420 L 776 420 L 776 320 Z Z" stroke-miterlimit="10"/></g><g transform="translate(-494,-150) scale(1,1)"><path fill="none" stroke="#000000" d="M 776 345 L 1009 345" stroke-miterlimit="10"/></g><g transform="translate(-494,-150) scale(1,1)"><g><path fill="none" stroke="none"/><text fill="#000000" stroke="none" font-family="Arial" font-size="13px" font-style="italic" font-weight="bold" text-decoration="none" x="866" y="339.5">Message</text></g></g><g transform="translate(-494,-150) scale(1,1)"><g><path fill="none" stroke="none"/><text fill="#000000" stroke="none" font-family="Arial" font-size="13px" font-style="normal" font-weight="normal" text-decoration="none" x="781" y="362.5">+creationDate: Date {NOT NULL}</text></g></g><g transform="translate(-494,-150) scale(1,1)"><g><path fill="none" stroke="none"/><text fill="#000000" stroke="none" font-family="Arial" font-size="13px" font-style="normal" font-weight="normal" text-decoration="none" x="781" y="377.5">+score: Integer {NOT NULL} = 0</text></g></g><g transform="translate(-494,-150) scale(1,1)"><g><path fill="none" stroke="none"/><text fill="#000000" stroke="none" font-family="Arial" font-size="13px" font-style="normal" font-weight="normal" text-decoration="none" x="781" y="392.5">+/numReports: Integer {NOT NULL}</text></g></g><g transform="translate(-494,-150) scale(1,1)"><g><path fill="none" stroke="none"/><text fill="#000000" stroke="none" font-family="Arial" font-size="13px" font-style="normal" font-weight="normal" text-decoration="none" x="781" y="407.5">+isBanned: Bool {NOT NULL} = False</text></g></g><g transform="translate(-494,-150) scale(1,1)"><rect fill="#C0C0C0" stroke="none" x="951" y="673" width="155" height="57" opacity="0.2"/></g><g transform="translate(-494,-150) scale(1,1)"><rect fill="#ffffff" stroke="none" x="944" y="666" width="155" height="57"/></g><g transform="translate(-494,-150) scale(1,1)"><path fill="none" stroke="#000000" d="M 944 666 L 1099 666 L 1099 723 L 944 723 L 944 666 Z Z" stroke-miterlimit="10"/></g><g transform="translate(-494,-150) scale(1,1)"><path fill="none" stroke="#000000" d="M 944 691 L 1099 691" stroke-miterlimit="10"/></g><g transform="translate(-494,-150) scale(1,1)"><g><path fill="none" stroke="none"/><text fill="#000000" stroke="none" font-family="Arial" font-size="13px" font-style="normal" font-weight="bold" text-decoration="none" x="995.5" y="685.5">Question</text></g></g><g transform="translate(-494,-150) scale(1,1)"><g><path fill="none" stroke="none"/><text fill="#000000" stroke="none" font-family="Arial" font-size="13px" font-style="normal" font-weight="normal" text-decoration="none" x="949" y="708.5">+title: String {NOT NULL}</text></g></g><g transform="translate(-494,-150) scale(1,1)"><rect fill="#C0C0C0" stroke="none" x="695" y="679" width="80" height="47" opacity="0.2"/></g><g transform="translate(-494,-150) scale(1,1)"><rect fill="#ffffff" stroke="none" x="688" y="672" width="80" height="47"/></g><g transform="translate(-494,-150) scale(1,1)"><path fill="none" stroke="#000000" d="M 688 672 L 768 672 L 768 719 L 688 719 L 688 672 Z Z" stroke-miterlimit="10"/></g><g transform="translate(-494,-150) scale(1,1)"><path fill="none" stroke="#000000" d="M 688 697 L 768 697" stroke-miterlimit="10"/></g><g transform="translate(-494,-150) scale(1,1)"><g><path fill="none" stroke="none"/><text fill="#000000" stroke="none" font-family="Arial" font-size="13px" font-style="normal" font-weight="bold" text-decoration="none" x="706.5" y="691.5">Answer</text></g></g><g transform="translate(-494,-150) scale(1,1)"><rect fill="#C0C0C0" stroke="none" x="767" y="519" width="77" height="39" opacity="0.2"/></g><g transform="translate(-494,-150) scale(1,1)"><rect fill="#ffffff" stroke="none" x="760" y="512" width="77" height="39"/></g><g transform="translate(-494,-150) scale(1,1)"><path fill="none" stroke="#000000" d="M 760 512 L 837 512 L 837 551 L 760 551 L 760 512 Z Z" stroke-miterlimit="10"/></g><g transform="translate(-494,-150) scale(1,1)"><path fill="none" stroke="#000000" d="M 760 537 L 837 537" stroke-miterlimit="10"/></g><g transform="translate(-494,-150) scale(1,1)"><g><path fill="none" stroke="none"/><text fill="#000000" stroke="none" font-family="Arial" font-size="13px" font-style="normal" font-weight="bold" text-decoration="none" x="770.5" y="531.5">Comment</text></g></g><g transform="translate(-494,-150) scale(1,1)"><path fill="none" stroke="#000000" d="M 810 511 L 862 421" stroke-miterlimit="10"/></g><g transform="translate(-494,-150) scale(1,1)"><path fill="#FFFFFF" stroke="none" d="M 859.1214316687679 442.81086528229514 L 862 421 L 844.5419340682198 434.387155557534"/></g><g transform="translate(-494,-150) scale(1,1)"><path fill="none" stroke="#000000" d="M 859.1214316687679 442.81086528229514 L 862 421 L 844.5419340682198 434.387155557534 L 859.1214316687679 442.81086528229514" stroke-miterlimit="10"/></g><g transform="translate(-494,-150) scale(1,1)"><rect fill="#C0C0C0" stroke="none" x="911" y="519" width="104" height="39" opacity="0.2"/></g><g transform="translate(-494,-150) scale(1,1)"><rect fill="#ffffff" stroke="none" x="904" y="512" width="104" height="39"/></g><g transform="translate(-494,-150) scale(1,1)"><path fill="none" stroke="#000000" d="M 904 512 L 1008 512 L 1008 551 L 904 551 L 904 512 Z Z" stroke-miterlimit="10"/></g><g transform="translate(-494,-150) scale(1,1)"><path fill="none" stroke="#000000" d="M 904 537 L 1008 537" stroke-miterlimit="10"/></g><g transform="translate(-494,-150) scale(1,1)"><g><path fill="none" stroke="none"/><text fill="#000000" stroke="none" font-family="Arial" font-size="13px" font-style="normal" font-weight="bold" text-decoration="none" x="916" y="531.5">Commentable</text></g></g><g transform="translate(-494,-150) scale(1,1)"><path fill="none" stroke="#000000" d="M 1009 665 L 964 552" stroke-miterlimit="10"/></g><g transform="translate(-494,-150) scale(1,1)"><path fill="#FFFFFF" stroke="none" d="M 979.3414677736071 567.7683025894157 L 964 552 L 963.6981822072952 573.9979295848498"/></g><g transform="translate(-494,-150) scale(1,1)"><path fill="none" stroke="#000000" d="M 979.3414677736071 567.7683025894157 L 964 552 L 963.6981822072952 573.9979295848498 L 979.3414677736071 567.7683025894157" stroke-miterlimit="10"/></g><g transform="translate(-494,-150) scale(1,1)"><path fill="none" stroke="#000000" d="M 761 671 L 927 552" stroke-miterlimit="10"/></g><g transform="translate(-494,-150) scale(1,1)"><path fill="#FFFFFF" stroke="none" d="M 915.3859337334812 570.6845782600761 L 927 552 L 905.5756229944841 556.9996069771053"/></g><g transform="translate(-494,-150) scale(1,1)"><path fill="none" stroke="#000000" d="M 915.3859337334812 570.6845782600761 L 927 552 L 905.5756229944841 556.9996069771053 L 915.3859337334812 570.6845782600761" stroke-miterlimit="10"/></g><g transform="translate(-494,-150) scale(1,1)"><path fill="none" stroke="#000000" d="M 948 511 L 912 421" stroke-miterlimit="10"/></g><g transform="translate(-494,-150) scale(1,1)"><path fill="#FFFFFF" stroke="none" d="M 927.3655236105367 436.7448621516366 L 912 421 L 911.7317671452229 442.9983647377622"/></g><g transform="translate(-494,-150) scale(1,1)"><path fill="none" stroke="#000000" d="M 927.3655236105367 436.7448621516366 L 912 421 L 911.7317671452229 442.9983647377622 L 927.3655236105367 436.7448621516366" stroke-miterlimit="10"/></g><g transform="translate(-494,-150) scale(1,1)"><path fill="none" stroke="#000000" d="M 768 680 L 944 680" stroke-miterlimit="10"/></g><g transform="translate(-494,-150) scale(1,1)"><path fill="#000000" stroke="none" d="M 933.8373251423759 684.209517756016 L 944 680 L 933.8373251423758 675.790482243984 L 922 680"/></g><g transform="translate(-494,-150) scale(1,1)"><path fill="none" stroke="#000000" d="M 933.8373251423759 684.209517756016 L 944 680 L 933.8373251423758 675.790482243984 L 922 680 L 933.8373251423759 684.209517756016" stroke-miterlimit="10"/></g><g transform="translate(-494,-150) scale(1,1)"><g><path fill="none" stroke="none"/><text fill="#000000" stroke="none" font-family="Arial" font-size="13px" font-style="normal" font-weight="normal" text-decoration="none" x="775.132568359375" y="699.5">*</text></g></g><g transform="translate(-494,-150) scale(1,1)"><path fill="none" stroke="#000000" d="M 838 531 L 903 531" stroke-miterlimit="10"/></g><g transform="translate(-494,-150) scale(1,1)"><path fill="#000000" stroke="none" d="M 892.8373251423759 535.209517756016 L 903 531 L 892.8373251423758 526.790482243984 L 881 531"/></g><g transform="translate(-494,-150) scale(1,1)"><path fill="none" stroke="#000000" d="M 892.8373251423759 535.209517756016 L 903 531 L 892.8373251423758 526.790482243984 L 881 531 L 892.8373251423759 535.209517756016" stroke-miterlimit="10"/></g><g transform="translate(-494,-150) scale(1,1)"><g><path fill="none" stroke="none"/><text fill="#000000" stroke="none" font-family="Arial" font-size="13px" font-style="normal" font-weight="normal" text-decoration="none" x="839.5" y="532.5">*</text></g></g><g transform="translate(-494,-150) scale(1,1)"><rect fill="#C0C0C0" stroke="none" x="1231" y="327" width="232" height="123" opacity="0.2"/></g><g transform="translate(-494,-150) scale(1,1)"><rect fill="#ffffff" stroke="none" x="1224" y="320" width="232" height="123"/></g><g transform="translate(-494,-150) scale(1,1)"><path fill="none" stroke="#000000" d="M 1224 320 L 1456 320 L 1456 443 L 1224 443 L 1224 320 Z Z" stroke-miterlimit="10"/></g><g transform="translate(-494,-150) scale(1,1)"><path fill="none" stroke="#000000" d="M 1224 345 L 1456 345" stroke-miterlimit="10"/></g><g transform="translate(-494,-150) scale(1,1)"><g><path fill="none" stroke="none"/><text fill="#000000" stroke="none" font-family="Arial" font-size="13px" font-style="normal" font-weight="bold" text-decoration="none" x="1326.5" y="339.5">User</text></g></g><g transform="translate(-494,-150) scale(1,1)"><g><path fill="none" stroke="none"/><text fill="#000000" stroke="none" font-family="Arial" font-size="13px" font-style="normal" font-weight="normal" text-decoration="none" x="1229" y="362.5">+userName: String {unique}</text></g></g><g transform="translate(-494,-150) scale(1,1)"><g><path fill="none" stroke="none"/><text fill="#000000" stroke="none" font-family="Arial" font-size="13px" font-style="normal" font-weight="normal" text-decoration="none" x="1229" y="377.5">+email: String {unique}</text></g></g><g transform="translate(-494,-150) scale(1,1)"><g><path fill="none" stroke="none"/><text fill="#000000" stroke="none" font-family="Arial" font-size="13px" font-style="normal" font-weight="normal" text-decoration="none" x="1229" y="392.5">+passwordHash: String {NOT NULL}</text></g></g><g transform="translate(-494,-150) scale(1,1)"><g><path fill="none" stroke="none"/><text fill="#000000" stroke="none" font-family="Arial" font-size="13px" font-style="normal" font-weight="normal" text-decoration="none" x="1229" y="407.5">+bio: String</text></g></g><g transform="translate(-494,-150) scale(1,1)"><g><path fill="none" stroke="none"/><text fill="#000000" stroke="none" font-family="Arial" font-size="13px" font-style="normal" font-weight="normal" text-decoration="none" x="1229" y="422.5">+/reputation: Integer {NOT NULL}</text></g></g><g transform="translate(-494,-150) scale(1,1)"><path fill="none" stroke="#000000" d="M 768 712 L 944 712" stroke-miterlimit="10"/></g><g transform="translate(-494,-150) scale(1,1)"><g><path fill="none" stroke="none"/><text fill="#000000" stroke="none" font-family="Arial" font-size="13px" font-style="normal" font-weight="normal" text-decoration="none" x="808.44189453125" y="675.5">+correct answer</text></g></g><g transform="translate(-494,-150) scale(1,1)"><g><path fill="none" stroke="none"/><text fill="#000000" stroke="none" font-family="Arial" font-size="13px" font-style="normal" font-weight="normal" text-decoration="none" x="774.5" y="730.5">0..1</text></g></g><g transform="translate(-494,-150) scale(1,1)"><g><path fill="none" stroke="none"/><text fill="#000000" stroke="none" font-family="Arial" font-size="13px" font-style="normal" font-weight="normal" text-decoration="none" x="916.5" y="732.5">0..1</text></g></g><g transform="translate(-494,-150) scale(1,1)"><rect fill="#C0C0C0" stroke="none" x="1039" y="455" width="171" height="56" opacity="0.2"/></g><g transform="translate(-494,-150) scale(1,1)"><rect fill="#ffffff" stroke="none" x="1032" y="448" width="171" height="56"/></g><g transform="translate(-494,-150) scale(1,1)"><path fill="none" stroke="#000000" d="M 1032 448 L 1203 448 L 1203 504 L 1032 504 L 1032 448 Z Z" stroke-miterlimit="10"/></g><g transform="translate(-494,-150) scale(1,1)"><path fill="none" stroke="#000000" d="M 1032 473 L 1203 473" stroke-miterlimit="10"/></g><g transform="translate(-494,-150) scale(1,1)"><g><path fill="none" stroke="none"/><text fill="#000000" stroke="none" font-family="Arial" font-size="13px" font-style="normal" font-weight="bold" text-decoration="none" x="1104" y="467.5">Vote</text></g></g><g transform="translate(-494,-150) scale(1,1)"><g><path fill="none" stroke="none"/><text fill="#000000" stroke="none" font-family="Arial" font-size="13px" font-style="normal" font-weight="normal" text-decoration="none" x="1037" y="490.5">+positive: Bool {NOT NULL}</text></g></g><g transform="translate(-494,-150) scale(1,1)"><path fill="none" stroke="#000000" d="M 1009 408 L 1224 408" stroke-miterlimit="10"/></g><g transform="translate(-494,-150) scale(1,1)"><g><path fill="none" stroke="none"/><text fill="#000000" stroke="none" font-family="Arial" font-size="13px" font-style="normal" font-weight="normal" text-decoration="none" x="1027.132568359375" y="426.5">*</text></g></g><g transform="translate(-494,-150) scale(1,1)"><g><path fill="none" stroke="none"/><text fill="#000000" stroke="none" font-family="Arial" font-size="13px" font-style="normal" font-weight="normal" text-decoration="none" x="1199.132568359375" y="426.5">*</text></g></g><g transform="translate(-494,-150) scale(1,1)"><path fill="none" stroke="#000000" d="M 1116 447 L 1116 409" stroke-miterlimit="10" stroke-dasharray="3"/></g><g transform="translate(-494,-150) scale(1,1)"><rect fill="#C0C0C0" stroke="none" x="1551" y="439" width="224" height="48" opacity="0.2"/></g><g transform="translate(-494,-150) scale(1,1)"><rect fill="#ffffff" stroke="none" x="1544" y="432" width="224" height="48"/></g><g transform="translate(-494,-150) scale(1,1)"><path fill="none" stroke="#000000" d="M 1544 432 L 1768 432 L 1768 480 L 1544 480 L 1544 432 Z Z" stroke-miterlimit="10"/></g><g transform="translate(-494,-150) scale(1,1)"><path fill="none" stroke="#000000" d="M 1544 457 L 1768 457" stroke-miterlimit="10"/></g><g transform="translate(-494,-150) scale(1,1)"><g><path fill="none" stroke="none"/><text fill="#000000" stroke="none" font-family="Arial" font-size="13px" font-style="italic" font-weight="bold" text-decoration="none" x="1637.5" y="451.5">Badge</text></g></g><g transform="translate(-494,-150) scale(1,1)"><g><path fill="none" stroke="none"/><text fill="#000000" stroke="none" font-family="Arial" font-size="13px" font-style="normal" font-weight="normal" text-decoration="none" x="1549" y="474.5">+description: String {NOT NULL}</text></g></g><g transform="translate(-494,-150) scale(1,1)"><rect fill="#C0C0C0" stroke="none" x="927" y="767" width="203" height="77" opacity="0.2"/></g><g transform="translate(-494,-150) scale(1,1)"><rect fill="#ffffff" stroke="none" x="920" y="760" width="203" height="77"/></g><g transform="translate(-494,-150) scale(1,1)"><path fill="none" stroke="#000000" d="M 920 760 L 1123 760 L 1123 837 L 920 837 L 920 760 Z Z" stroke-miterlimit="10"/></g><g transform="translate(-494,-150) scale(1,1)"><path fill="none" stroke="#000000" d="M 920 785 L 1123 785" stroke-miterlimit="10"/></g><g transform="translate(-494,-150) scale(1,1)"><g><path fill="none" stroke="none"/><text fill="#000000" stroke="none" font-family="Arial" font-size="13px" font-style="normal" font-weight="bold" text-decoration="none" x="995.5" y="779.5">Category</text></g></g><g transform="translate(-494,-150) scale(1,1)"><g><path fill="none" stroke="none"/><text fill="#000000" stroke="none" font-family="Arial" font-size="13px" font-style="normal" font-weight="normal" text-decoration="none" x="925" y="802.5">+name: String {NOT NULL}</text></g></g><g transform="translate(-494,-150) scale(1,1)"><g><path fill="none" stroke="none"/><text fill="#000000" stroke="none" font-family="Arial" font-size="13px" font-style="normal" font-weight="normal" text-decoration="none" x="925" y="817.5">+description: String</text></g></g><g transform="translate(-494,-150) scale(1,1)"><g><path fill="none" stroke="none"/><text fill="#000000" stroke="none" font-family="Arial" font-size="13px" font-style="normal" font-weight="normal" text-decoration="none" x="925" y="832.5">+/numPosts: Integer {NOT NULL}</text></g></g><g transform="translate(-494,-150) scale(1,1)"><path fill="none" stroke="#000000" d="M 1021 759 L 1021 724" stroke-miterlimit="10"/></g><g transform="translate(-494,-150) scale(1,1)"><g><path fill="none" stroke="none"/><text fill="#000000" stroke="none" font-family="Arial" font-size="13px" font-style="normal" font-weight="normal" text-decoration="none" x="1021.5" y="743.5">1..5</text></g></g><g transform="translate(-494,-150) scale(1,1)"><g><path fill="none" stroke="none"/><text fill="#000000" stroke="none" font-family="Arial" font-size="13px" font-style="normal" font-weight="normal" text-decoration="none" x="1029.132568359375" y="743.5">*</text></g></g><g transform="translate(-494,-150) scale(1,1)"><path fill="none" stroke="#000000" d="M 855 711 L 840 711 L 840 681 L 855 681" stroke-miterlimit="10" stroke-dasharray="3"/></g><g transform="translate(-494,-150) scale(1,1)"><g><path fill="none" stroke="none"/><text fill="#000000" stroke="none" font-family="Arial" font-size="12px" font-style="normal" font-weight="normal" text-decoration="none" x="845" y="697">{belongs to↑}</text></g></g><g transform="translate(-494,-150) scale(1,1)"><rect fill="#C0C0C0" stroke="none" x="1247" y="607" width="197" height="80" opacity="0.2"/></g><g transform="translate(-494,-150) scale(1,1)"><rect fill="#ffffff" stroke="none" x="1240" y="600" width="197" height="80"/></g><g transform="translate(-494,-150) scale(1,1)"><path fill="none" stroke="#000000" d="M 1240 600 L 1437 600 L 1437 680 L 1240 680 L 1240 600 Z Z" stroke-miterlimit="10"/></g><g transform="translate(-494,-150) scale(1,1)"><path fill="none" stroke="#000000" d="M 1240 625 L 1437 625" stroke-miterlimit="10"/></g><g transform="translate(-494,-150) scale(1,1)"><g><path fill="none" stroke="none"/><text fill="#000000" stroke="none" font-family="Arial" font-size="13px" font-style="normal" font-weight="bold" text-decoration="none" x="1306" y="619.5">Notification</text></g></g><g transform="translate(-494,-150) scale(1,1)"><g><path fill="none" stroke="none"/><text fill="#000000" stroke="none" font-family="Arial" font-size="13px" font-style="normal" font-weight="normal" text-decoration="none" x="1245" y="642.5">+description: String {NOT NULL}</text></g></g><g transform="translate(-494,-150) scale(1,1)"><g><path fill="none" stroke="none"/><text fill="#000000" stroke="none" font-family="Arial" font-size="13px" font-style="normal" font-weight="normal" text-decoration="none" x="1245" y="657.5">+date: Date {NOT NULL}</text></g></g><g transform="translate(-494,-150) scale(1,1)"><g><path fill="none" stroke="none"/><text fill="#000000" stroke="none" font-family="Arial" font-size="13px" font-style="normal" font-weight="normal" text-decoration="none" x="1245" y="672.5">+read: Bool {NOT NULL}</text></g></g><g transform="translate(-494,-150) scale(1,1)"><path fill="none" stroke="#000000" d="M 1264 600 L 1264 443" stroke-miterlimit="10"/></g><g transform="translate(-494,-150) scale(1,1)"><path fill="#000000" stroke="none" d="M 1268.2095177560159 453.16267485762415 L 1264 443 L 1259.7904822439841 453.16267485762415 L 1264 465"/></g><g transform="translate(-494,-150) scale(1,1)"><path fill="none" stroke="#000000" d="M 1268.2095177560159 453.16267485762415 L 1264 443 L 1259.7904822439841 453.16267485762415 L 1264 465 L 1268.2095177560159 453.16267485762415" stroke-miterlimit="10"/></g><g transform="translate(-494,-150) scale(1,1)"><g><path fill="none" stroke="none"/><text fill="#000000" stroke="none" font-family="Arial" font-size="13px" font-style="normal" font-weight="normal" text-decoration="none" x="1274.132568359375" y="593.5">*</text></g></g><g transform="translate(-494,-150) scale(1,1)"><g><path fill="none" stroke="none"/><text fill="#000000" stroke="none" font-family="Arial" font-size="13px" font-style="normal" font-weight="normal" text-decoration="none" x="909" y="586">{disjoint,</text><text fill="#000000" stroke="none" font-family="Arial" font-size="13px" font-style="normal" font-weight="normal" text-decoration="none" x="909" y="599">complete}</text></g></g><g transform="translate(-494,-150) scale(1,1)"><g><path fill="none" stroke="none"/><text fill="#000000" stroke="none" font-family="Arial" font-size="13px" font-style="normal" font-weight="normal" text-decoration="none" x="861" y="450">{disjoint,</text><text fill="#000000" stroke="none" font-family="Arial" font-size="13px" font-style="normal" font-weight="normal" text-decoration="none" x="861" y="463">complete}</text></g></g><g transform="translate(-494,-150) scale(1,1)"><g><path fill="none" stroke="none"/><text fill="#000000" stroke="none" font-family="Arial" font-size="12px" font-style="normal" font-weight="normal" text-decoration="none" x="1109" y="393">{XOR}</text></g></g><g transform="translate(-494,-150) scale(1,1)"><rect fill="#C0C0C0" stroke="none" x="1175" y="751" width="166" height="34" opacity="0.2"/></g><g transform="translate(-494,-150) scale(1,1)"><rect fill="#ffffff" stroke="none" x="1168" y="744" width="166" height="34"/></g><g transform="translate(-494,-150) scale(1,1)"><path fill="none" stroke="#000000" d="M 1168 744 L 1334 744 L 1334 778 L 1168 778 L 1168 744 Z Z" stroke-miterlimit="10"/></g><g transform="translate(-494,-150) scale(1,1)"><path fill="none" stroke="#000000" d="M 1168 769 L 1334 769" stroke-miterlimit="10"/></g><g transform="translate(-494,-150) scale(1,1)"><g><path fill="none" stroke="none"/><text fill="#000000" stroke="none" font-family="Arial" font-size="13px" font-style="normal" font-weight="bold" text-decoration="none" x="1178.5" y="763.5">CommentableNotification</text></g></g><g transform="translate(-494,-150) scale(1,1)"><path fill="none" stroke="#000000" d="M 1264 743 L 1309 681" stroke-miterlimit="10"/></g><g transform="translate(-494,-150) scale(1,1)"><path fill="#FFFFFF" stroke="none" d="M 1303.8745122521234 702.3946108949513 L 1309 681 L 1290.2474584119202 692.5040073012555"/></g><g transform="translate(-494,-150) scale(1,1)"><path fill="none" stroke="#000000" d="M 1303.8745122521234 702.3946108949513 L 1309 681 L 1290.2474584119202 692.5040073012555 L 1303.8745122521234 702.3946108949513" stroke-miterlimit="10"/></g><g transform="translate(-494,-150) scale(1,1)"><g><path fill="none" stroke="none"/><text fill="#000000" stroke="none" font-family="Arial" font-size="13px" font-style="normal" font-weight="normal" text-decoration="none" x="1317" y="706">{disjoint,</text><text fill="#000000" stroke="none" font-family="Arial" font-size="13px" font-style="normal" font-weight="normal" text-decoration="none" x="1317" y="719">complete}</text></g></g><g transform="translate(-494,-150) scale(1,1)"><rect fill="#C0C0C0" stroke="none" x="1375" y="751" width="134" height="34" opacity="0.2"/></g><g transform="translate(-494,-150) scale(1,1)"><rect fill="#ffffff" stroke="none" x="1368" y="744" width="134" height="34"/></g><g transform="translate(-494,-150) scale(1,1)"><path fill="none" stroke="#000000" d="M 1368 744 L 1502 744 L 1502 778 L 1368 778 L 1368 744 Z Z" stroke-miterlimit="10"/></g><g transform="translate(-494,-150) scale(1,1)"><path fill="none" stroke="#000000" d="M 1368 769 L 1502 769" stroke-miterlimit="10"/></g><g transform="translate(-494,-150) scale(1,1)"><g><path fill="none" stroke="none"/><text fill="#000000" stroke="none" font-family="Arial" font-size="13px" font-style="normal" font-weight="bold" text-decoration="none" x="1384" y="763.5">BadgeNotification</text></g></g><g transform="translate(-494,-150) scale(1,1)"><path fill="none" stroke="#000000" d="M 1421 743 L 1371 681" stroke-miterlimit="10"/></g><g transform="translate(-494,-150) scale(1,1)"><path fill="#FFFFFF" stroke="none" d="M 1390.3127751274083 691.5364470709136 L 1371 681 L 1377.2058010826652 702.1065874295773"/></g><g transform="translate(-494,-150) scale(1,1)"><path fill="none" stroke="#000000" d="M 1390.3127751274083 691.5364470709136 L 1371 681 L 1377.2058010826652 702.1065874295773 L 1390.3127751274083 691.5364470709136" stroke-miterlimit="10"/></g><g transform="translate(-494,-150) scale(1,1)"><path fill="none" stroke="#000000" d="M 983 552 L 1228 743" stroke-miterlimit="10"/></g><g transform="translate(-494,-150) scale(1,1)"><g><path fill="none" stroke="none"/><text fill="#000000" stroke="none" font-family="Arial" font-size="13px" font-style="normal" font-weight="normal" text-decoration="none" x="988.5" y="581.5">1</text></g></g><g transform="translate(-494,-150) scale(1,1)"><g><path fill="none" stroke="none"/><text fill="#000000" stroke="none" font-family="Arial" font-size="13px" font-style="normal" font-weight="normal" text-decoration="none" x="1192.5" y="742.5">1</text></g></g><g transform="translate(-494,-150) scale(1,1)"><path fill="none" stroke="#000000" d="M 1448 743 L 1638 481" stroke-miterlimit="10"/></g><g transform="translate(-494,-150) scale(1,1)"><g><path fill="none" stroke="none"/><text fill="#000000" stroke="none" font-family="Arial" font-size="13px" font-style="normal" font-weight="normal" text-decoration="none" x="1444.5" y="731.5">1</text></g></g><g transform="translate(-494,-150) scale(1,1)"><g><path fill="none" stroke="none"/><text fill="#000000" stroke="none" font-family="Arial" font-size="13px" font-style="normal" font-weight="normal" text-decoration="none" x="1599.5" y="517.5">1</text></g></g><g transform="translate(-494,-150) scale(1,1)"><rect fill="#C0C0C0" stroke="none" x="1559" y="295" width="215" height="47" opacity="0.2"/></g><g transform="translate(-494,-150) scale(1,1)"><rect fill="#ffffff" stroke="none" x="1552" y="288" width="215" height="47"/></g><g transform="translate(-494,-150) scale(1,1)"><path fill="none" stroke="#000000" d="M 1552 288 L 1767 288 L 1767 335 L 1552 335 L 1552 288 Z Z" stroke-miterlimit="10"/></g><g transform="translate(-494,-150) scale(1,1)"><path fill="none" stroke="#000000" d="M 1552 313 L 1767 313" stroke-miterlimit="10"/></g><g transform="translate(-494,-150) scale(1,1)"><g><path fill="none" stroke="none"/><text fill="#000000" stroke="none" font-family="Arial" font-size="13px" font-style="normal" font-weight="bold" text-decoration="none" x="1609.5" y="307.5">BadgeAttainment</text></g></g><g transform="translate(-494,-150) scale(1,1)"><g><path fill="none" stroke="none"/><text fill="#000000" stroke="none" font-family="Arial" font-size="13px" font-style="normal" font-weight="normal" text-decoration="none" x="1557" y="330.5">+attainmentDate: Date {NOT NULL}</text></g></g><g transform="translate(-494,-150) scale(1,1)"><path fill="none" stroke="#000000" d="M 1656 432 L 1656 368 L 1456 368" stroke-miterlimit="10"/></g><g transform="translate(-494,-150) scale(1,1)"><g><path fill="none" stroke="none"/><text fill="#000000" stroke="none" font-family="Arial" font-size="13px" font-style="normal" font-weight="normal" text-decoration="none" x="1647.5" y="427.5">*</text></g></g><g transform="translate(-494,-150) scale(1,1)"><g><path fill="none" stroke="none"/><text fill="#000000" stroke="none" font-family="Arial" font-size="13px" font-style="normal" font-weight="normal" text-decoration="none" x="1463.5" y="387.5">*</text></g></g><g transform="translate(-494,-150) scale(1,1)"><path fill="none" stroke="#000000" d="M 1614 336 L 1614 368 L 1557 368" stroke-miterlimit="10" stroke-dasharray="3"/></g><g transform="translate(-494,-150) scale(1,1)"><path fill="#ffffff" stroke="none" d="M 1376 520 L 1517 520 L 1527 530 L 1527 575 L 1376 575 L 1376 520"/></g><g transform="translate(-494,-150) scale(1,1)"><path fill="none" stroke="#000000" d="M 1376 520 L 1517 520 L 1527 530 L 1527 575 L 1376 575 L 1376 520 L 1376 520" stroke-miterlimit="10"/></g><g transform="translate(-494,-150) scale(1,1)"><path fill="none" stroke="#000000" d="M 1517 520 L 1517 530 L 1527 530 L 1517 520" stroke-miterlimit="10"/></g><g transform="translate(-494,-150) scale(1,1)"><g><path fill="none" stroke="none"/><text fill="#000000" stroke="none" font-family="Arial" font-size="13px" font-style="normal" font-weight="normal" text-decoration="none" x="1381" y="538">A Moderator is a User</text><text fill="#000000" stroke="none" font-family="Arial" font-size="13px" font-style="normal" font-weight="normal" text-decoration="none" x="1381" y="551">that has attained the</text><text fill="#000000" stroke="none" font-family="Arial" font-size="13px" font-style="normal" font-weight="normal" text-decoration="none" x="1381" y="564">Moderator Badge.</text></g></g><g transform="translate(-494,-150) scale(1,1)"><rect fill="#C0C0C0" stroke="none" x="1719" y="567" width="130" height="34" opacity="0.2"/></g><g transform="translate(-494,-150) scale(1,1)"><rect fill="#ffffff" stroke="none" x="1712" y="560" width="130" height="34"/></g><g transform="translate(-494,-150) scale(1,1)"><path fill="none" stroke="#000000" d="M 1712 560 L 1842 560 L 1842 594 L 1712 594 L 1712 560 Z Z" stroke-miterlimit="10"/></g><g transform="translate(-494,-150) scale(1,1)"><path fill="none" stroke="#000000" d="M 1712 585 L 1842 585" stroke-miterlimit="10"/></g><g transform="translate(-494,-150) scale(1,1)"><g><path fill="none" stroke="none"/><text fill="#000000" stroke="none" font-family="Arial" font-size="13px" font-style="normal" font-weight="bold" text-decoration="none" x="1736.5" y="579.5">TrustedBadge</text></g></g><g transform="translate(-494,-150) scale(1,1)"><rect fill="#C0C0C0" stroke="none" x="1599" y="567" width="111" height="34" opacity="0.2"/></g><g transform="translate(-494,-150) scale(1,1)"><rect fill="#ffffff" stroke="none" x="1592" y="560" width="111" height="34"/></g><g transform="translate(-494,-150) scale(1,1)"><path fill="none" stroke="#000000" d="M 1592 560 L 1703 560 L 1703 594 L 1592 594 L 1592 560 Z Z" stroke-miterlimit="10"/></g><g transform="translate(-494,-150) scale(1,1)"><path fill="none" stroke="#000000" d="M 1592 585 L 1703 585" stroke-miterlimit="10"/></g><g transform="translate(-494,-150) scale(1,1)"><g><path fill="none" stroke="none"/><text fill="#000000" stroke="none" font-family="Arial" font-size="13px" font-style="normal" font-weight="bold" text-decoration="none" x="1600" y="579.5">ModeratorBadge</text></g></g><g transform="translate(-494,-150) scale(1,1)"><path fill="none" stroke="#000000" d="M 1680 560 L 1680 480" stroke-miterlimit="10"/></g><g transform="translate(-494,-150) scale(1,1)"><path fill="#FFFFFF" stroke="none" d="M 1688.419035512032 500.3253497152483 L 1680 480 L 1671.580964487968 500.3253497152483"/></g><g transform="translate(-494,-150) scale(1,1)"><path fill="none" stroke="#000000" d="M 1688.419035512032 500.3253497152483 L 1680 480 L 1671.580964487968 500.3253497152483 L 1688.419035512032 500.3253497152483" stroke-miterlimit="10"/></g><g transform="translate(-494,-150) scale(1,1)"><path fill="none" stroke="#000000" d="M 1736 560 L 1736 480" stroke-miterlimit="10"/></g><g transform="translate(-494,-150) scale(1,1)"><path fill="#FFFFFF" stroke="none" d="M 1744.419035512032 500.3253497152483 L 1736 480 L 1727.580964487968 500.3253497152483"/></g><g transform="translate(-494,-150) scale(1,1)"><path fill="none" stroke="#000000" d="M 1744.419035512032 500.3253497152483 L 1736 480 L 1727.580964487968 500.3253497152483 L 1744.419035512032 500.3253497152483" stroke-miterlimit="10"/></g><g transform="translate(-494,-150) scale(1,1)"><rect fill="#C0C0C0" stroke="none" x="1295" y="487" width="72" height="34" opacity="0.2"/></g><g transform="translate(-494,-150) scale(1,1)"><rect fill="#ffffff" stroke="none" x="1288" y="480" width="72" height="34"/></g><g transform="translate(-494,-150) scale(1,1)"><path fill="none" stroke="#000000" d="M 1288 480 L 1360 480 L 1360 514 L 1288 514 L 1288 480 Z Z" stroke-miterlimit="10"/></g><g transform="translate(-494,-150) scale(1,1)"><path fill="none" stroke="#000000" d="M 1288 505 L 1360 505" stroke-miterlimit="10"/></g><g transform="translate(-494,-150) scale(1,1)"><g><path fill="none" stroke="none"/><text fill="#000000" stroke="none" font-family="Arial" font-size="13px" font-style="normal" font-weight="bold" text-decoration="none" x="1295" y="499.5">Moderator</text></g></g><g transform="translate(-494,-150) scale(1,1)"><path fill="none" stroke="#000000" d="M 1375 525 L 1360 521 L 1351 515" stroke-miterlimit="10" stroke-dasharray="3"/></g><g transform="translate(-494,-150) scale(1,1)"><rect fill="#C0C0C0" stroke="none" x="807" y="223" width="190" height="62" opacity="0.2"/></g><g transform="translate(-494,-150) scale(1,1)"><rect fill="#ffffff" stroke="none" x="800" y="216" width="190" height="62"/></g><g transform="translate(-494,-150) scale(1,1)"><path fill="none" stroke="#000000" d="M 800 216 L 990 216 L 990 278 L 800 278 L 800 216 Z Z" stroke-miterlimit="10"/></g><g transform="translate(-494,-150) scale(1,1)"><path fill="none" stroke="#000000" d="M 800 241 L 990 241" stroke-miterlimit="10"/></g><g transform="translate(-494,-150) scale(1,1)"><g><path fill="none" stroke="none"/><text fill="#000000" stroke="none" font-family="Arial" font-size="13px" font-style="normal" font-weight="bold" text-decoration="none" x="846.5" y="235.5">MessageVersion</text></g></g><g transform="translate(-494,-150) scale(1,1)"><g><path fill="none" stroke="none"/><text fill="#000000" stroke="none" font-family="Arial" font-size="13px" font-style="normal" font-weight="normal" text-decoration="none" x="805" y="258.5">+content: String {NOT NULL}</text></g></g><g transform="translate(-494,-150) scale(1,1)"><g><path fill="none" stroke="none"/><text fill="#000000" stroke="none" font-family="Arial" font-size="13px" font-style="normal" font-weight="normal" text-decoration="none" x="805" y="273.5">+timeStamp: Date {NOT NULL}</text></g></g><g transform="translate(-494,-150) scale(1,1)"><path fill="none" stroke="#000000" d="M 894 279 L 893 319" stroke-miterlimit="10"/></g><g transform="translate(-494,-150) scale(1,1)"><path fill="#000000" stroke="none" d="M 889.0457846147159 308.7352944179201 L 893 319 L 897.4621904107655 308.94570456282133 L 893.5498282055245 297.0068717790213"/></g><g transform="translate(-494,-150) scale(1,1)"><path fill="none" stroke="#000000" d="M 889.0457846147159 308.7352944179201 L 893 319 L 897.4621904107655 308.94570456282133 L 893.5498282055245 297.0068717790213 L 889.0457846147159 308.7352944179201" stroke-miterlimit="10"/></g><g transform="translate(-494,-150) scale(1,1)"><g><path fill="none" stroke="none"/><text fill="#000000" stroke="none" font-family="Arial" font-size="13px" font-style="normal" font-weight="normal" text-decoration="none" x="869.5" y="298.5">1..*</text></g></g><g transform="translate(-494,-150) scale(1,1)"><path fill="none" stroke="#000000" d="M 1304 480 L 1304 443" stroke-miterlimit="10"/></g><g transform="translate(-494,-150) scale(1,1)"><path fill="#FFFFFF" stroke="none" d="M 1312.419035512032 463.3253497152483 L 1304 443 L 1295.580964487968 463.3253497152483"/></g><g transform="translate(-494,-150) scale(1,1)"><path fill="none" stroke="#000000" d="M 1312.419035512032 463.3253497152483 L 1304 443 L 1295.580964487968 463.3253497152483 L 1312.419035512032 463.3253497152483" stroke-miterlimit="10"/></g><g transform="translate(-494,-150) scale(1,1)"><g><path fill="none" stroke="none"/><text fill="#000000" stroke="none" font-family="Arial" font-size="13px" font-style="normal" font-weight="normal" text-decoration="none" x="1317" y="466">{incomplete}</text></g></g><g transform="translate(-494,-150) scale(1,1)"><path fill="#ffffff" stroke="none" d="M 1248 280 L 1477 280 L 1487 290 L 1487 303 L 1248 303 L 1248 280"/></g><g transform="translate(-494,-150) scale(1,1)"><path fill="none" stroke="#000000" d="M 1248 280 L 1477 280 L 1487 290 L 1487 303 L 1248 303 L 1248 280 L 1248 280" stroke-miterlimit="10"/></g><g transform="translate(-494,-150) scale(1,1)"><path fill="none" stroke="#000000" d="M 1477 280 L 1477 290 L 1487 290 L 1477 280" stroke-miterlimit="10"/></g><g transform="translate(-494,-150) scale(1,1)"><g><path fill="none" stroke="none"/><text fill="#000000" stroke="none" font-family="Arial" font-size="13px" font-style="normal" font-weight="normal" text-decoration="none" x="1253" y="298">{reputation = QP + AP + CP/2 - R*10}</text></g></g><g transform="translate(-494,-150) scale(1,1)"><path fill="#ffffff" stroke="none" d="M 1536 632 L 1757 632 L 1767 642 L 1767 707 L 1536 707 L 1536 632"/></g><g transform="translate(-494,-150) scale(1,1)"><path fill="none" stroke="#000000" d="M 1536 632 L 1757 632 L 1767 642 L 1767 707 L 1536 707 L 1536 632 L 1536 632" stroke-miterlimit="10"/></g><g transform="translate(-494,-150) scale(1,1)"><path fill="none" stroke="#000000" d="M 1757 632 L 1757 642 L 1767 642 L 1757 632" stroke-miterlimit="10"/></g><g transform="translate(-494,-150) scale(1,1)"><g><path fill="none" stroke="none"/><text fill="#000000" stroke="none" font-family="Arial" font-size="13px" font-style="normal" font-weight="normal" text-decoration="none" x="1541" y="650">The Moderator badge is attributed by</text><text fill="#000000" stroke="none" font-family="Arial" font-size="13px" font-style="normal" font-weight="normal" text-decoration="none" x="1541" y="663">the system to users with reputation</text><text fill="#000000" stroke="none" font-family="Arial" font-size="13px" font-style="normal" font-weight="normal" text-decoration="none" x="1541" y="676">over 500 points, and which have</text><text fill="#000000" stroke="none" font-family="Arial" font-size="13px" font-style="normal" font-weight="normal" text-decoration="none" x="1541" y="689">already attained the Trusted badge.</text></g></g><g transform="translate(-494,-150) scale(1,1)"><path fill="none" stroke="#000000" d="M 1360 319 L 1364 305" stroke-miterlimit="10" stroke-dasharray="3"/></g><g transform="translate(-494,-150) scale(1,1)"><path fill="none" stroke="#000000" d="M 1650 632 L 1650 594" stroke-miterlimit="10" stroke-dasharray="3"/></g><g transform="translate(-494,-150) scale(1,1)"><path fill="none" stroke="#000000" d="M 1591 569 L 1529 559" stroke-miterlimit="10" stroke-dasharray="3"/></g><g transform="translate(-494,-150) scale(1,1)"><path fill="#ffffff" stroke="none" d="M 1224 160 L 1485 160 L 1495 170 L 1495 215 L 1224 215 L 1224 160"/></g><g transform="translate(-494,-150) scale(1,1)"><path fill="none" stroke="#000000" d="M 1224 160 L 1485 160 L 1495 170 L 1495 215 L 1224 215 L 1224 160 L 1224 160" stroke-miterlimit="10"/></g><g transform="translate(-494,-150) scale(1,1)"><path fill="none" stroke="#000000" d="M 1485 160 L 1485 170 L 1495 170 L 1485 160" stroke-miterlimit="10"/></g><g transform="translate(-494,-150) scale(1,1)"><g><path fill="none" stroke="none"/><text fill="#000000" stroke="none" font-family="Arial" font-size="13px" font-style="normal" font-weight="normal" text-decoration="none" x="1229" y="178">If MessageVersion's Moderator has zero</text><text fill="#000000" stroke="none" font-family="Arial" font-size="13px" font-style="normal" font-weight="normal" text-decoration="none" x="1229" y="191">multiplicity (is NULL), it means the content</text><text fill="#000000" stroke="none" font-family="Arial" font-size="13px" font-style="normal" font-weight="normal" text-decoration="none" x="1229" y="204">was written by the Message's author.</text></g></g><g transform="translate(-494,-150) scale(1,1)"><path fill="none" stroke="#000000" d="M 1128 401 L 1128 408 L 1116 408 L 1116 408" stroke-miterlimit="10" stroke-dasharray="3"/></g><g transform="translate(-494,-150) scale(1,1)"><path fill="#ffffff" stroke="none" d="M 688 784 L 893 784 L 903 794 L 903 820 L 688 820 L 688 784"/></g><g transform="translate(-494,-150) scale(1,1)"><path fill="none" stroke="#000000" d="M 688 784 L 893 784 L 903 794 L 903 820 L 688 820 L 688 784 L 688 784" stroke-miterlimit="10"/></g><g transform="translate(-494,-150) scale(1,1)"><path fill="none" stroke="#000000" d="M 893 784 L 893 794 L 903 794 L 893 784" stroke-miterlimit="10"/></g><g transform="translate(-494,-150) scale(1,1)"><g><path fill="none" stroke="none"/><text fill="#000000" stroke="none" font-family="Arial" font-size="13px" font-style="normal" font-weight="normal" text-decoration="none" x="693" y="802">{numPosts = number of Questions</text><text fill="#000000" stroke="none" font-family="Arial" font-size="13px" font-style="normal" font-weight="normal" text-decoration="none" x="693" y="815">with a given category.}</text></g></g><g transform="translate(-494,-150) scale(1,1)"><path fill="none" stroke="#000000" d="M 920 802 L 904 802" stroke-miterlimit="10" stroke-dasharray="3"/></g><g transform="translate(-494,-150) scale(1,1)"><path fill="#ffffff" stroke="none" d="M 504 352 L 733 352 L 743 362 L 743 391 L 504 391 L 504 352"/></g><g transform="translate(-494,-150) scale(1,1)"><path fill="none" stroke="#000000" d="M 504 352 L 733 352 L 743 362 L 743 391 L 504 391 L 504 352 L 504 352" stroke-miterlimit="10"/></g><g transform="translate(-494,-150) scale(1,1)"><path fill="none" stroke="#000000" d="M 733 352 L 733 362 L 743 362 L 733 352" stroke-miterlimit="10"/></g><g transform="translate(-494,-150) scale(1,1)"><g><path fill="none" stroke="none"/><text fill="#000000" stroke="none" font-family="Arial" font-size="13px" font-style="normal" font-weight="normal" text-decoration="none" x="509" y="370">A Message is automatically banned</text><text fill="#000000" stroke="none" font-family="Arial" font-size="13px" font-style="normal" font-weight="normal" text-decoration="none" x="509" y="383">after ( 5 + score^(1/3) ) reports.</text></g></g><g transform="translate(-494,-150) scale(1,1)"><path fill="none" stroke="#000000" d="M 745 371 L 775 371" stroke-miterlimit="10" stroke-dasharray="3"/></g><g transform="translate(-494,-150) scale(1,1)"><path fill="#ffffff" stroke="none" d="M 1672 368 L 1893 368 L 1903 378 L 1903 417 L 1672 417 L 1672 368"/></g><g transform="translate(-494,-150) scale(1,1)"><path fill="none" stroke="#000000" d="M 1672 368 L 1893 368 L 1903 378 L 1903 417 L 1672 417 L 1672 368 L 1672 368" stroke-miterlimit="10"/></g><g transform="translate(-494,-150) scale(1,1)"><path fill="none" stroke="#000000" d="M 1893 368 L 1893 378 L 1903 378 L 1893 368" stroke-miterlimit="10"/></g><g transform="translate(-494,-150) scale(1,1)"><g><path fill="none" stroke="none"/><text fill="#000000" stroke="none" font-family="Arial" font-size="13px" font-style="normal" font-weight="normal" text-decoration="none" x="1677" y="386">Badges are automatically attributed</text><text fill="#000000" stroke="none" font-family="Arial" font-size="13px" font-style="normal" font-weight="normal" text-decoration="none" x="1677" y="399">by the system, and cannot be</text><text fill="#000000" stroke="none" font-family="Arial" font-size="13px" font-style="normal" font-weight="normal" text-decoration="none" x="1677" y="412">manually attributed.</text></g></g><g transform="translate(-494,-150) scale(1,1)"><path fill="#ffffff" stroke="none" d="M 1776 632 L 1925 632 L 1935 642 L 1935 707 L 1776 707 L 1776 632"/></g><g transform="translate(-494,-150) scale(1,1)"><path fill="none" stroke="#000000" d="M 1776 632 L 1925 632 L 1935 642 L 1935 707 L 1776 707 L 1776 632 L 1776 632" stroke-miterlimit="10"/></g><g transform="translate(-494,-150) scale(1,1)"><path fill="none" stroke="#000000" d="M 1925 632 L 1925 642 L 1935 642 L 1925 632" stroke-miterlimit="10"/></g><g transform="translate(-494,-150) scale(1,1)"><g><path fill="none" stroke="none"/><text fill="#000000" stroke="none" font-family="Arial" font-size="13px" font-style="normal" font-weight="normal" text-decoration="none" x="1781" y="650">A Trusted badge is</text><text fill="#000000" stroke="none" font-family="Arial" font-size="13px" font-style="normal" font-weight="normal" text-decoration="none" x="1781" y="663">attributed by the system</text><text fill="#000000" stroke="none" font-family="Arial" font-size="13px" font-style="normal" font-weight="normal" text-decoration="none" x="1781" y="676">to users which have</text><text fill="#000000" stroke="none" font-family="Arial" font-size="13px" font-style="normal" font-weight="normal" text-decoration="none" x="1781" y="689">correctly answered 50</text><text fill="#000000" stroke="none" font-family="Arial" font-size="13px" font-style="normal" font-weight="normal" text-decoration="none" x="1781" y="702">questions.</text></g></g><g transform="translate(-494,-150) scale(1,1)"><path fill="none" stroke="#000000" d="M 1734 419 L 1708 431" stroke-miterlimit="10" stroke-dasharray="3"/></g><g transform="translate(-494,-150) scale(1,1)"><path fill="none" stroke="#000000" d="M 1823 631 L 1792 595" stroke-miterlimit="10" stroke-dasharray="3"/></g><g transform="translate(-494,-150) scale(1,1)"><path fill="none" stroke="#000000" d="M 1360 488 L 1496 488 L 1496 232 L 990 232" stroke-miterlimit="10"/></g><g transform="translate(-494,-150) scale(1,1)"><g><path fill="none" stroke="none"/><text fill="#000000" stroke="none" font-family="Arial" font-size="13px" font-style="normal" font-weight="normal" text-decoration="none" x="1366.5" y="504.5">0..1</text></g></g><g transform="translate(-494,-150) scale(1,1)"><g><path fill="none" stroke="none"/><text fill="#000000" stroke="none" font-family="Arial" font-size="13px" font-style="normal" font-weight="normal" text-decoration="none" x="1001.5" y="228.5">*</text></g></g><g transform="translate(-494,-150) scale(1,1)"><path fill="none" stroke="#000000" d="M 1009 368 L 1224 368" stroke-miterlimit="10"/></g><g transform="translate(-494,-150) scale(1,1)"><g><path fill="none" stroke="none"/><text fill="#000000" stroke="none" font-family="Arial" font-size="13px" font-style="normal" font-weight="normal" text-decoration="none" x="1102.5" y="364.5">+author</text></g></g><g transform="translate(-494,-150) scale(1,1)"><g><path fill="none" stroke="none"/><text fill="#000000" stroke="none" font-family="Arial" font-size="13px" font-style="normal" font-weight="normal" text-decoration="none" x="1027.5" y="386.5">*</text></g></g><g transform="translate(-494,-150) scale(1,1)"><g><path fill="none" stroke="none"/><text fill="#000000" stroke="none" font-family="Arial" font-size="13px" font-style="normal" font-weight="normal" text-decoration="none" x="1198.5" y="386.5">1</text></g></g><g transform="translate(-494,-150) scale(1,1)"><path fill="none" stroke="#000000" d="M 1496 360 L 1496 256 L 1398 256 L 1398 216" stroke-miterlimit="10" stroke-dasharray="3"/></g><g transform="translate(-494,-150) scale(1,1)"><path fill="none" stroke="#000000" d="M 1117 375 L 1117 369" stroke-miterlimit="10" stroke-dasharray="3"/></g><g transform="translate(-494,-150) scale(1,1)"><path fill="none" stroke="#000000" d="M 1099 694 L 1232 694 L 1232 443" stroke-miterlimit="10"/></g><g transform="translate(-494,-150) scale(1,1)"><g><path fill="none" stroke="none"/><text fill="#000000" stroke="none" font-family="Arial" font-size="13px" font-style="normal" font-weight="normal" text-decoration="none" x="1170.5" y="691.5">+favourite</text></g></g><g transform="translate(-494,-150) scale(1,1)"><g><path fill="none" stroke="none"/><text fill="#000000" stroke="none" font-family="Arial" font-size="13px" font-style="normal" font-weight="normal" text-decoration="none" x="1117.5" y="712.5">*</text></g></g><g transform="translate(-494,-150) scale(1,1)"><g><path fill="none" stroke="none"/><text fill="#000000" stroke="none" font-family="Arial" font-size="13px" font-style="normal" font-weight="normal" text-decoration="none" x="1241.5" y="470.5">*</text></g></g><g transform="translate(-494,-150) scale(1,1)"><path fill="none" stroke="#000000" d="M 1224 336 L 1009 336" stroke-miterlimit="10"/></g><g transform="translate(-494,-150) scale(1,1)"><g><path fill="none" stroke="none"/><text fill="#000000" stroke="none" font-family="Arial" font-size="13px" font-style="normal" font-weight="normal" text-decoration="none" x="1095.5" y="332.5">+report</text></g></g><g transform="translate(-494,-150) scale(1,1)"><g><path fill="none" stroke="none"/><text fill="#000000" stroke="none" font-family="Arial" font-size="13px" font-style="normal" font-weight="normal" text-decoration="none" x="1199.5" y="329.5">*</text></g></g><g transform="translate(-494,-150) scale(1,1)"><g><path fill="none" stroke="none"/><text fill="#000000" stroke="none" font-family="Arial" font-size="13px" font-style="normal" font-weight="normal" text-decoration="none" x="1027.5" y="329.5">*</text></g></g><g transform="translate(-494,-150) scale(1,1)"><g><path fill="none" stroke="none"/><text fill="#000000" stroke="none" font-family="Arial" font-size="13px" font-style="normal" font-weight="normal" text-decoration="none" x="1149" y="354">{XOR}</text></g></g></g></svg>