<svg version="1.1" xmlns="http://www.w3.org/2000/svg" xmlns:xlink="http://www.w3.org/1999/xlink" width="1542" height="654"><defs/><g><g transform="translate(-310,-134) scale(1,1)"><rect fill="#C0C0C0" stroke="none" x="783" y="335" width="233" height="92" opacity="0.2"/></g><g transform="translate(-310,-134) scale(1,1)"><rect fill="#ffffff" stroke="none" x="776" y="328" width="233" height="92"/></g><g transform="translate(-310,-134) scale(1,1)"><path fill="none" stroke="#000000" d="M 776 328 L 1009 328 L 1009 420 L 776 420 L 776 328 Z Z" stroke-miterlimit="10"/></g><g transform="translate(-310,-134) scale(1,1)"><path fill="none" stroke="#000000" d="M 776 353 L 1009 353" stroke-miterlimit="10"/></g><g transform="translate(-310,-134) scale(1,1)"><g><path fill="none" stroke="none"/><text fill="#000000" stroke="none" font-family="Arial" font-size="13px" font-style="italic" font-weight="bold" text-decoration="none" x="866" y="347.5">Message</text></g></g><g transform="translate(-310,-134) scale(1,1)"><g><path fill="none" stroke="none"/><text fill="#000000" stroke="none" font-family="Arial" font-size="13px" font-style="normal" font-weight="normal" text-decoration="none" x="781" y="370.5">+creationDate: Date {NOT NULL}</text></g></g><g transform="translate(-310,-134) scale(1,1)"><g><path fill="none" stroke="none"/><text fill="#000000" stroke="none" font-family="Arial" font-size="13px" font-style="normal" font-weight="normal" text-decoration="none" x="781" y="385.5">+score: Integer {NOT NULL} = 0</text></g></g><g transform="translate(-310,-134) scale(1,1)"><g><path fill="none" stroke="none"/><text fill="#000000" stroke="none" font-family="Arial" font-size="13px" font-style="normal" font-weight="normal" text-decoration="none" x="781" y="400.5">+numReports: Integer {NOT NULL} = 0</text></g></g><g transform="translate(-310,-134) scale(1,1)"><g><path fill="none" stroke="none"/><text fill="#000000" stroke="none" font-family="Arial" font-size="13px" font-style="normal" font-weight="normal" text-decoration="none" x="781" y="415.5">+isBanned: Bool {NOT NULL} = False</text></g></g><g transform="translate(-310,-134) scale(1,1)"><rect fill="#C0C0C0" stroke="none" x="615" y="673" width="155" height="57" opacity="0.2"/></g><g transform="translate(-310,-134) scale(1,1)"><rect fill="#ffffff" stroke="none" x="608" y="666" width="155" height="57"/></g><g transform="translate(-310,-134) scale(1,1)"><path fill="none" stroke="#000000" d="M 608 666 L 763 666 L 763 723 L 608 723 L 608 666 Z Z" stroke-miterlimit="10"/></g><g transform="translate(-310,-134) scale(1,1)"><path fill="none" stroke="#000000" d="M 608 691 L 763 691" stroke-miterlimit="10"/></g><g transform="translate(-310,-134) scale(1,1)"><g><path fill="none" stroke="none"/><text fill="#000000" stroke="none" font-family="Arial" font-size="13px" font-style="normal" font-weight="bold" text-decoration="none" x="659.5" y="685.5">Question</text></g></g><g transform="translate(-310,-134) scale(1,1)"><g><path fill="none" stroke="none"/><text fill="#000000" stroke="none" font-family="Arial" font-size="13px" font-style="normal" font-weight="normal" text-decoration="none" x="613" y="708.5">+title: String {NOT NULL}</text></g></g><g transform="translate(-310,-134) scale(1,1)"><rect fill="#C0C0C0" stroke="none" x="911" y="680" width="80" height="47" opacity="0.2"/></g><g transform="translate(-310,-134) scale(1,1)"><rect fill="#ffffff" stroke="none" x="904" y="673" width="80" height="47"/></g><g transform="translate(-310,-134) scale(1,1)"><path fill="none" stroke="#000000" d="M 904 673 L 984 673 L 984 720 L 904 720 L 904 673 Z Z" stroke-miterlimit="10"/></g><g transform="translate(-310,-134) scale(1,1)"><path fill="none" stroke="#000000" d="M 904 698 L 984 698" stroke-miterlimit="10"/></g><g transform="translate(-310,-134) scale(1,1)"><g><path fill="none" stroke="none"/><text fill="#000000" stroke="none" font-family="Arial" font-size="13px" font-style="normal" font-weight="bold" text-decoration="none" x="922.5" y="692.5">Answer</text></g></g><g transform="translate(-310,-134) scale(1,1)"><rect fill="#C0C0C0" stroke="none" x="935" y="531" width="77" height="39" opacity="0.2"/></g><g transform="translate(-310,-134) scale(1,1)"><rect fill="#ffffff" stroke="none" x="928" y="524" width="77" height="39"/></g><g transform="translate(-310,-134) scale(1,1)"><path fill="none" stroke="#000000" d="M 928 524 L 1005 524 L 1005 563 L 928 563 L 928 524 Z Z" stroke-miterlimit="10"/></g><g transform="translate(-310,-134) scale(1,1)"><path fill="none" stroke="#000000" d="M 928 549 L 1005 549" stroke-miterlimit="10"/></g><g transform="translate(-310,-134) scale(1,1)"><g><path fill="none" stroke="none"/><text fill="#000000" stroke="none" font-family="Arial" font-size="13px" font-style="normal" font-weight="bold" text-decoration="none" x="938.5" y="543.5">Comment</text></g></g><g transform="translate(-310,-134) scale(1,1)"><path fill="none" stroke="#000000" d="M 957 523 L 913 421" stroke-miterlimit="10"/></g><g transform="translate(-310,-134) scale(1,1)"><path fill="#FFFFFF" stroke="none" d="M 928.7811431677195 436.3282588809016 L 913 421 L 913.3202375503017 442.9976691472387"/></g><g transform="translate(-310,-134) scale(1,1)"><path fill="none" stroke="#000000" d="M 928.7811431677195 436.3282588809016 L 913 421 L 913.3202375503017 442.9976691472387 L 928.7811431677195 436.3282588809016" stroke-miterlimit="10"/></g><g transform="translate(-310,-134) scale(1,1)"><rect fill="#C0C0C0" stroke="none" x="767" y="531" width="104" height="39" opacity="0.2"/></g><g transform="translate(-310,-134) scale(1,1)"><rect fill="#ffffff" stroke="none" x="760" y="524" width="104" height="39"/></g><g transform="translate(-310,-134) scale(1,1)"><path fill="none" stroke="#000000" d="M 760 524 L 864 524 L 864 563 L 760 563 L 760 524 Z Z" stroke-miterlimit="10"/></g><g transform="translate(-310,-134) scale(1,1)"><path fill="none" stroke="#000000" d="M 760 549 L 864 549" stroke-miterlimit="10"/></g><g transform="translate(-310,-134) scale(1,1)"><g><path fill="none" stroke="none"/><text fill="#000000" stroke="none" font-family="Arial" font-size="13px" font-style="normal" font-weight="bold" text-decoration="none" x="772" y="543.5">Commentable</text></g></g><g transform="translate(-310,-134) scale(1,1)"><path fill="none" stroke="#000000" d="M 709 665 L 794 564" stroke-miterlimit="10"/></g><g transform="translate(-310,-134) scale(1,1)"><path fill="#FFFFFF" stroke="none" d="M 787.3539258221302 584.9721171564116 L 794 564 L 774.4709896234222 574.1300421376968"/></g><g transform="translate(-310,-134) scale(1,1)"><path fill="none" stroke="#000000" d="M 787.3539258221302 584.9721171564116 L 794 564 L 774.4709896234222 574.1300421376968 L 787.3539258221302 584.9721171564116" stroke-miterlimit="10"/></g><g transform="translate(-310,-134) scale(1,1)"><path fill="none" stroke="#000000" d="M 923 672 L 830 564" stroke-miterlimit="10"/></g><g transform="translate(-310,-134) scale(1,1)"><path fill="#FFFFFF" stroke="none" d="M 849.642443380403 573.9083004621206 L 830 564 L 836.8830784665565 584.8955313601551"/></g><g transform="translate(-310,-134) scale(1,1)"><path fill="none" stroke="#000000" d="M 849.642443380403 573.9083004621206 L 830 564 L 836.8830784665565 584.8955313601551 L 849.642443380403 573.9083004621206" stroke-miterlimit="10"/></g><g transform="translate(-310,-134) scale(1,1)"><path fill="none" stroke="#000000" d="M 821 523 L 870 421" stroke-miterlimit="10"/></g><g transform="translate(-310,-134) scale(1,1)"><path fill="#FFFFFF" stroke="none" d="M 868.7875441133649 442.9665643814176 L 870 421 L 853.6099575871996 435.67537085414205"/></g><g transform="translate(-310,-134) scale(1,1)"><path fill="none" stroke="#000000" d="M 868.7875441133649 442.9665643814176 L 870 421 L 853.6099575871996 435.67537085414205 L 868.7875441133649 442.9665643814176" stroke-miterlimit="10"/></g><g transform="translate(-310,-134) scale(1,1)"><path fill="none" stroke="#000000" d="M 904 680 L 763 680" stroke-miterlimit="10"/></g><g transform="translate(-310,-134) scale(1,1)"><path fill="#000000" stroke="none" d="M 773.1626748576241 675.790482243984 L 763 680 L 773.1626748576241 684.209517756016 L 785 680"/></g><g transform="translate(-310,-134) scale(1,1)"><path fill="none" stroke="#000000" d="M 773.1626748576241 675.790482243984 L 763 680 L 773.1626748576241 684.209517756016 L 785 680 L 773.1626748576241 675.790482243984" stroke-miterlimit="10"/></g><g transform="translate(-310,-134) scale(1,1)"><g><path fill="none" stroke="none"/><text fill="#000000" stroke="none" font-family="Arial" font-size="13px" font-style="normal" font-weight="normal" text-decoration="none" x="890.132568359375" y="678.5">*</text></g></g><g transform="translate(-310,-134) scale(1,1)"><path fill="none" stroke="#000000" d="M 927 543 L 865 543" stroke-miterlimit="10"/></g><g transform="translate(-310,-134) scale(1,1)"><path fill="#000000" stroke="none" d="M 875.1626748576241 538.790482243984 L 865 543 L 875.1626748576241 547.209517756016 L 887 543"/></g><g transform="translate(-310,-134) scale(1,1)"><path fill="none" stroke="#000000" d="M 875.1626748576241 538.790482243984 L 865 543 L 875.1626748576241 547.209517756016 L 887 543 L 875.1626748576241 538.790482243984" stroke-miterlimit="10"/></g><g transform="translate(-310,-134) scale(1,1)"><g><path fill="none" stroke="none"/><text fill="#000000" stroke="none" font-family="Arial" font-size="13px" font-style="normal" font-weight="normal" text-decoration="none" x="907.132568359375" y="545.5">*</text></g></g><g transform="translate(-310,-134) scale(1,1)"><rect fill="#C0C0C0" stroke="none" x="1231" y="327" width="232" height="123" opacity="0.2"/></g><g transform="translate(-310,-134) scale(1,1)"><rect fill="#ffffff" stroke="none" x="1224" y="320" width="232" height="123"/></g><g transform="translate(-310,-134) scale(1,1)"><path fill="none" stroke="#000000" d="M 1224 320 L 1456 320 L 1456 443 L 1224 443 L 1224 320 Z Z" stroke-miterlimit="10"/></g><g transform="translate(-310,-134) scale(1,1)"><path fill="none" stroke="#000000" d="M 1224 345 L 1456 345" stroke-miterlimit="10"/></g><g transform="translate(-310,-134) scale(1,1)"><g><path fill="none" stroke="none"/><text fill="#000000" stroke="none" font-family="Arial" font-size="13px" font-style="normal" font-weight="bold" text-decoration="none" x="1326.5" y="339.5">User</text></g></g><g transform="translate(-310,-134) scale(1,1)"><g><path fill="none" stroke="none"/><text fill="#000000" stroke="none" font-family="Arial" font-size="13px" font-style="normal" font-weight="normal" text-decoration="none" x="1229" y="362.5">+userName: String {unique}</text></g></g><g transform="translate(-310,-134) scale(1,1)"><g><path fill="none" stroke="none"/><text fill="#000000" stroke="none" font-family="Arial" font-size="13px" font-style="normal" font-weight="normal" text-decoration="none" x="1229" y="377.5">+email: String {unique}</text></g></g><g transform="translate(-310,-134) scale(1,1)"><g><path fill="none" stroke="none"/><text fill="#000000" stroke="none" font-family="Arial" font-size="13px" font-style="normal" font-weight="normal" text-decoration="none" x="1229" y="392.5">+passwordHash: String {NOT NULL}</text></g></g><g transform="translate(-310,-134) scale(1,1)"><g><path fill="none" stroke="none"/><text fill="#000000" stroke="none" font-family="Arial" font-size="13px" font-style="normal" font-weight="normal" text-decoration="none" x="1229" y="407.5">+bio: String</text></g></g><g transform="translate(-310,-134) scale(1,1)"><g><path fill="none" stroke="none"/><text fill="#000000" stroke="none" font-family="Arial" font-size="13px" font-style="normal" font-weight="normal" text-decoration="none" x="1229" y="422.5">+/reputation: Integer {NOT NULL}</text></g></g><g transform="translate(-310,-134) scale(1,1)"><path fill="none" stroke="#000000" d="M 904 712 L 763 712" stroke-miterlimit="10"/></g><g transform="translate(-310,-134) scale(1,1)"><g><path fill="none" stroke="none"/><text fill="#000000" stroke="none" font-family="Arial" font-size="13px" font-style="normal" font-weight="normal" text-decoration="none" x="785.44189453125" y="740.5">+correct answer</text></g></g><g transform="translate(-310,-134) scale(1,1)"><g><path fill="none" stroke="none"/><text fill="#000000" stroke="none" font-family="Arial" font-size="13px" font-style="normal" font-weight="normal" text-decoration="none" x="878.5" y="732.5">0..1</text></g></g><g transform="translate(-310,-134) scale(1,1)"><g><path fill="none" stroke="none"/><text fill="#000000" stroke="none" font-family="Arial" font-size="13px" font-style="normal" font-weight="normal" text-decoration="none" x="764.5" y="731.5">0..1</text></g></g><g transform="translate(-310,-134) scale(1,1)"><rect fill="#C0C0C0" stroke="none" x="1039" y="455" width="171" height="56" opacity="0.2"/></g><g transform="translate(-310,-134) scale(1,1)"><rect fill="#ffffff" stroke="none" x="1032" y="448" width="171" height="56"/></g><g transform="translate(-310,-134) scale(1,1)"><path fill="none" stroke="#000000" d="M 1032 448 L 1203 448 L 1203 504 L 1032 504 L 1032 448 Z Z" stroke-miterlimit="10"/></g><g transform="translate(-310,-134) scale(1,1)"><path fill="none" stroke="#000000" d="M 1032 473 L 1203 473" stroke-miterlimit="10"/></g><g transform="translate(-310,-134) scale(1,1)"><g><path fill="none" stroke="none"/><text fill="#000000" stroke="none" font-family="Arial" font-size="13px" font-style="normal" font-weight="bold" text-decoration="none" x="1104" y="467.5">Vote</text></g></g><g transform="translate(-310,-134) scale(1,1)"><g><path fill="none" stroke="none"/><text fill="#000000" stroke="none" font-family="Arial" font-size="13px" font-style="normal" font-weight="normal" text-decoration="none" x="1037" y="490.5">+positive: Bool {NOT NULL}</text></g></g><g transform="translate(-310,-134) scale(1,1)"><path fill="none" stroke="#000000" d="M 1009 400 L 1224 400" stroke-miterlimit="10"/></g><g transform="translate(-310,-134) scale(1,1)"><g><path fill="none" stroke="none"/><text fill="#000000" stroke="none" font-family="Arial" font-size="13px" font-style="normal" font-weight="normal" text-decoration="none" x="1027.132568359375" y="418.5">*</text></g></g><g transform="translate(-310,-134) scale(1,1)"><g><path fill="none" stroke="none"/><text fill="#000000" stroke="none" font-family="Arial" font-size="13px" font-style="normal" font-weight="normal" text-decoration="none" x="1199.132568359375" y="418.5">*</text></g></g><g transform="translate(-310,-134) scale(1,1)"><path fill="none" stroke="#000000" d="M 1116 447 L 1116 401" stroke-miterlimit="10" stroke-dasharray="3"/></g><g transform="translate(-310,-134) scale(1,1)"><rect fill="#C0C0C0" stroke="none" x="1551" y="439" width="224" height="48" opacity="0.2"/></g><g transform="translate(-310,-134) scale(1,1)"><rect fill="#ffffff" stroke="none" x="1544" y="432" width="224" height="48"/></g><g transform="translate(-310,-134) scale(1,1)"><path fill="none" stroke="#000000" d="M 1544 432 L 1768 432 L 1768 480 L 1544 480 L 1544 432 Z Z" stroke-miterlimit="10"/></g><g transform="translate(-310,-134) scale(1,1)"><path fill="none" stroke="#000000" d="M 1544 457 L 1768 457" stroke-miterlimit="10"/></g><g transform="translate(-310,-134) scale(1,1)"><g><path fill="none" stroke="none"/><text fill="#000000" stroke="none" font-family="Arial" font-size="13px" font-style="italic" font-weight="bold" text-decoration="none" x="1637.5" y="451.5">Badge</text></g></g><g transform="translate(-310,-134) scale(1,1)"><g><path fill="none" stroke="none"/><text fill="#000000" stroke="none" font-family="Arial" font-size="13px" font-style="normal" font-weight="normal" text-decoration="none" x="1549" y="474.5">+description: String {NOT NULL}</text></g></g><g transform="translate(-310,-134) scale(1,1)"><rect fill="#C0C0C0" stroke="none" x="327" y="663" width="203" height="77" opacity="0.2"/></g><g transform="translate(-310,-134) scale(1,1)"><rect fill="#ffffff" stroke="none" x="320" y="656" width="203" height="77"/></g><g transform="translate(-310,-134) scale(1,1)"><path fill="none" stroke="#000000" d="M 320 656 L 523 656 L 523 733 L 320 733 L 320 656 Z Z" stroke-miterlimit="10"/></g><g transform="translate(-310,-134) scale(1,1)"><path fill="none" stroke="#000000" d="M 320 681 L 523 681" stroke-miterlimit="10"/></g><g transform="translate(-310,-134) scale(1,1)"><g><path fill="none" stroke="none"/><text fill="#000000" stroke="none" font-family="Arial" font-size="13px" font-style="normal" font-weight="bold" text-decoration="none" x="395.5" y="675.5">Category</text></g></g><g transform="translate(-310,-134) scale(1,1)"><g><path fill="none" stroke="none"/><text fill="#000000" stroke="none" font-family="Arial" font-size="13px" font-style="normal" font-weight="normal" text-decoration="none" x="325" y="698.5">+name: String {NOT NULL}</text></g></g><g transform="translate(-310,-134) scale(1,1)"><g><path fill="none" stroke="none"/><text fill="#000000" stroke="none" font-family="Arial" font-size="13px" font-style="normal" font-weight="normal" text-decoration="none" x="325" y="713.5">+description: String</text></g></g><g transform="translate(-310,-134) scale(1,1)"><g><path fill="none" stroke="none"/><text fill="#000000" stroke="none" font-family="Arial" font-size="13px" font-style="normal" font-weight="normal" text-decoration="none" x="325" y="728.5">+/numPosts: Integer {NOT NULL}</text></g></g><g transform="translate(-310,-134) scale(1,1)"><path fill="none" stroke="#000000" d="M 524 694 L 607 694" stroke-miterlimit="10"/></g><g transform="translate(-310,-134) scale(1,1)"><g><path fill="none" stroke="none"/><text fill="#000000" stroke="none" font-family="Arial" font-size="13px" font-style="normal" font-weight="normal" text-decoration="none" x="533.5" y="712.5">1..5</text></g></g><g transform="translate(-310,-134) scale(1,1)"><g><path fill="none" stroke="none"/><text fill="#000000" stroke="none" font-family="Arial" font-size="13px" font-style="normal" font-weight="normal" text-decoration="none" x="590.132568359375" y="711.5">*</text></g></g><g transform="translate(-310,-134) scale(1,1)"><path fill="none" stroke="#000000" d="M 832 712 L 816 712 L 816 680 L 832 680" stroke-miterlimit="10" stroke-dasharray="3"/></g><g transform="translate(-310,-134) scale(1,1)"><g><path fill="none" stroke="none"/><text fill="#000000" stroke="none" font-family="Arial" font-size="12px" font-style="normal" font-weight="normal" text-decoration="none" x="821" y="697">{belongs to↑}</text></g></g><g transform="translate(-310,-134) scale(1,1)"><rect fill="#C0C0C0" stroke="none" x="1239" y="607" width="197" height="80" opacity="0.2"/></g><g transform="translate(-310,-134) scale(1,1)"><rect fill="#ffffff" stroke="none" x="1232" y="600" width="197" height="80"/></g><g transform="translate(-310,-134) scale(1,1)"><path fill="none" stroke="#000000" d="M 1232 600 L 1429 600 L 1429 680 L 1232 680 L 1232 600 Z Z" stroke-miterlimit="10"/></g><g transform="translate(-310,-134) scale(1,1)"><path fill="none" stroke="#000000" d="M 1232 625 L 1429 625" stroke-miterlimit="10"/></g><g transform="translate(-310,-134) scale(1,1)"><g><path fill="none" stroke="none"/><text fill="#000000" stroke="none" font-family="Arial" font-size="13px" font-style="normal" font-weight="bold" text-decoration="none" x="1298" y="619.5">Notification</text></g></g><g transform="translate(-310,-134) scale(1,1)"><g><path fill="none" stroke="none"/><text fill="#000000" stroke="none" font-family="Arial" font-size="13px" font-style="normal" font-weight="normal" text-decoration="none" x="1237" y="642.5">+description: String {NOT NULL}</text></g></g><g transform="translate(-310,-134) scale(1,1)"><g><path fill="none" stroke="none"/><text fill="#000000" stroke="none" font-family="Arial" font-size="13px" font-style="normal" font-weight="normal" text-decoration="none" x="1237" y="657.5">+date: Date {NOT NULL}</text></g></g><g transform="translate(-310,-134) scale(1,1)"><g><path fill="none" stroke="none"/><text fill="#000000" stroke="none" font-family="Arial" font-size="13px" font-style="normal" font-weight="normal" text-decoration="none" x="1237" y="672.5">+read: Bool {NOT NULL}</text></g></g><g transform="translate(-310,-134) scale(1,1)"><path fill="none" stroke="#000000" d="M 1248 600 L 1248 443" stroke-miterlimit="10"/></g><g transform="translate(-310,-134) scale(1,1)"><path fill="#000000" stroke="none" d="M 1252.2095177560159 453.16267485762415 L 1248 443 L 1243.7904822439841 453.16267485762415 L 1248 465"/></g><g transform="translate(-310,-134) scale(1,1)"><path fill="none" stroke="#000000" d="M 1252.2095177560159 453.16267485762415 L 1248 443 L 1243.7904822439841 453.16267485762415 L 1248 465 L 1252.2095177560159 453.16267485762415" stroke-miterlimit="10"/></g><g transform="translate(-310,-134) scale(1,1)"><g><path fill="none" stroke="none"/><text fill="#000000" stroke="none" font-family="Arial" font-size="13px" font-style="normal" font-weight="normal" text-decoration="none" x="1258.132568359375" y="593.5">*</text></g></g><g transform="translate(-310,-134) scale(1,1)"><g><path fill="none" stroke="none"/><text fill="#000000" stroke="none" font-family="Arial" font-size="13px" font-style="normal" font-weight="normal" text-decoration="none" x="789" y="594">{disjoint,</text><text fill="#000000" stroke="none" font-family="Arial" font-size="13px" font-style="normal" font-weight="normal" text-decoration="none" x="789" y="607">complete}</text></g></g><g transform="translate(-310,-134) scale(1,1)"><g><path fill="none" stroke="none"/><text fill="#000000" stroke="none" font-family="Arial" font-size="13px" font-style="normal" font-weight="normal" text-decoration="none" x="869" y="450">{disjoint,</text><text fill="#000000" stroke="none" font-family="Arial" font-size="13px" font-style="normal" font-weight="normal" text-decoration="none" x="869" y="463">complete}</text></g></g><g transform="translate(-310,-134) scale(1,1)"><g><path fill="none" stroke="none"/><text fill="#000000" stroke="none" font-family="Arial" font-size="12px" font-style="normal" font-weight="normal" text-decoration="none" x="1125" y="369">{XOR}</text></g></g><g transform="translate(-310,-134) scale(1,1)"><rect fill="#C0C0C0" stroke="none" x="1159" y="751" width="166" height="34" opacity="0.2"/></g><g transform="translate(-310,-134) scale(1,1)"><rect fill="#ffffff" stroke="none" x="1152" y="744" width="166" height="34"/></g><g transform="translate(-310,-134) scale(1,1)"><path fill="none" stroke="#000000" d="M 1152 744 L 1318 744 L 1318 778 L 1152 778 L 1152 744 Z Z" stroke-miterlimit="10"/></g><g transform="translate(-310,-134) scale(1,1)"><path fill="none" stroke="#000000" d="M 1152 769 L 1318 769" stroke-miterlimit="10"/></g><g transform="translate(-310,-134) scale(1,1)"><g><path fill="none" stroke="none"/><text fill="#000000" stroke="none" font-family="Arial" font-size="13px" font-style="normal" font-weight="bold" text-decoration="none" x="1162.5" y="763.5">CommentableNotification</text></g></g><g transform="translate(-310,-134) scale(1,1)"><path fill="none" stroke="#000000" d="M 1249 743 L 1298 681" stroke-miterlimit="10"/></g><g transform="translate(-310,-134) scale(1,1)"><path fill="#FFFFFF" stroke="none" d="M 1292.0024035349709 702.1666916792084 L 1298 681 L 1278.7919476471043 691.7261700904106"/></g><g transform="translate(-310,-134) scale(1,1)"><path fill="none" stroke="#000000" d="M 1292.0024035349709 702.1666916792084 L 1298 681 L 1278.7919476471043 691.7261700904106 L 1292.0024035349709 702.1666916792084" stroke-miterlimit="10"/></g><g transform="translate(-310,-134) scale(1,1)"><g><path fill="none" stroke="none"/><text fill="#000000" stroke="none" font-family="Arial" font-size="13px" font-style="normal" font-weight="normal" text-decoration="none" x="1309" y="706">{disjoint,</text><text fill="#000000" stroke="none" font-family="Arial" font-size="13px" font-style="normal" font-weight="normal" text-decoration="none" x="1309" y="719">complete}</text></g></g><g transform="translate(-310,-134) scale(1,1)"><rect fill="#C0C0C0" stroke="none" x="1359" y="751" width="134" height="34" opacity="0.2"/></g><g transform="translate(-310,-134) scale(1,1)"><rect fill="#ffffff" stroke="none" x="1352" y="744" width="134" height="34"/></g><g transform="translate(-310,-134) scale(1,1)"><path fill="none" stroke="#000000" d="M 1352 744 L 1486 744 L 1486 778 L 1352 778 L 1352 744 Z Z" stroke-miterlimit="10"/></g><g transform="translate(-310,-134) scale(1,1)"><path fill="none" stroke="#000000" d="M 1352 769 L 1486 769" stroke-miterlimit="10"/></g><g transform="translate(-310,-134) scale(1,1)"><g><path fill="none" stroke="none"/><text fill="#000000" stroke="none" font-family="Arial" font-size="13px" font-style="normal" font-weight="bold" text-decoration="none" x="1368" y="763.5">BadgeNotification</text></g></g><g transform="translate(-310,-134) scale(1,1)"><path fill="none" stroke="#000000" d="M 1406 743 L 1360 681" stroke-miterlimit="10"/></g><g transform="translate(-310,-134) scale(1,1)"><path fill="#FFFFFF" stroke="none" d="M 1378.872107929924 692.3067918651269 L 1360 681 L 1365.3494862912376 702.3397046938298"/></g><g transform="translate(-310,-134) scale(1,1)"><path fill="none" stroke="#000000" d="M 1378.872107929924 692.3067918651269 L 1360 681 L 1365.3494862912376 702.3397046938298 L 1378.872107929924 692.3067918651269" stroke-miterlimit="10"/></g><g transform="translate(-310,-134) scale(1,1)"><path fill="none" stroke="#000000" d="M 853 564 L 1200 743" stroke-miterlimit="10"/></g><g transform="translate(-310,-134) scale(1,1)"><g><path fill="none" stroke="none"/><text fill="#000000" stroke="none" font-family="Arial" font-size="13px" font-style="normal" font-weight="normal" text-decoration="none" x="862.5" y="591.5">1</text></g></g><g transform="translate(-310,-134) scale(1,1)"><g><path fill="none" stroke="none"/><text fill="#000000" stroke="none" font-family="Arial" font-size="13px" font-style="normal" font-weight="normal" text-decoration="none" x="1163.5" y="748.5">1</text></g></g><g transform="translate(-310,-134) scale(1,1)"><path fill="none" stroke="#000000" d="M 1433 743 L 1637 481" stroke-miterlimit="10"/></g><g transform="translate(-310,-134) scale(1,1)"><g><path fill="none" stroke="none"/><text fill="#000000" stroke="none" font-family="Arial" font-size="13px" font-style="normal" font-weight="normal" text-decoration="none" x="1430.5" y="731.5">1</text></g></g><g transform="translate(-310,-134) scale(1,1)"><g><path fill="none" stroke="none"/><text fill="#000000" stroke="none" font-family="Arial" font-size="13px" font-style="normal" font-weight="normal" text-decoration="none" x="1597.5" y="516.5">1</text></g></g><g transform="translate(-310,-134) scale(1,1)"><rect fill="#C0C0C0" stroke="none" x="1559" y="295" width="215" height="47" opacity="0.2"/></g><g transform="translate(-310,-134) scale(1,1)"><rect fill="#ffffff" stroke="none" x="1552" y="288" width="215" height="47"/></g><g transform="translate(-310,-134) scale(1,1)"><path fill="none" stroke="#000000" d="M 1552 288 L 1767 288 L 1767 335 L 1552 335 L 1552 288 Z Z" stroke-miterlimit="10"/></g><g transform="translate(-310,-134) scale(1,1)"><path fill="none" stroke="#000000" d="M 1552 313 L 1767 313" stroke-miterlimit="10"/></g><g transform="translate(-310,-134) scale(1,1)"><g><path fill="none" stroke="none"/><text fill="#000000" stroke="none" font-family="Arial" font-size="13px" font-style="normal" font-weight="bold" text-decoration="none" x="1609.5" y="307.5">BadgeAttainment</text></g></g><g transform="translate(-310,-134) scale(1,1)"><g><path fill="none" stroke="none"/><text fill="#000000" stroke="none" font-family="Arial" font-size="13px" font-style="normal" font-weight="normal" text-decoration="none" x="1557" y="330.5">+attainmentDate: Date {NOT NULL}</text></g></g><g transform="translate(-310,-134) scale(1,1)"><path fill="none" stroke="#000000" d="M 1656 432 L 1656 368 L 1456 368" stroke-miterlimit="10"/></g><g transform="translate(-310,-134) scale(1,1)"><path fill="none" stroke="#000000" d="M 1614 336 L 1614 368 L 1557 368" stroke-miterlimit="10" stroke-dasharray="3"/></g><g transform="translate(-310,-134) scale(1,1)"><path fill="#ffffff" stroke="none" d="M 1376 504 L 1517 504 L 1527 514 L 1527 559 L 1376 559 L 1376 504"/></g><g transform="translate(-310,-134) scale(1,1)"><path fill="none" stroke="#000000" d="M 1376 504 L 1517 504 L 1527 514 L 1527 559 L 1376 559 L 1376 504 L 1376 504" stroke-miterlimit="10"/></g><g transform="translate(-310,-134) scale(1,1)"><path fill="none" stroke="#000000" d="M 1517 504 L 1517 514 L 1527 514 L 1517 504" stroke-miterlimit="10"/></g><g transform="translate(-310,-134) scale(1,1)"><g><path fill="none" stroke="none"/><text fill="#000000" stroke="none" font-family="Arial" font-size="13px" font-style="normal" font-weight="normal" text-decoration="none" x="1381" y="522">A Moderator is a User</text><text fill="#000000" stroke="none" font-family="Arial" font-size="13px" font-style="normal" font-weight="normal" text-decoration="none" x="1381" y="535">that has attained a</text><text fill="#000000" stroke="none" font-family="Arial" font-size="13px" font-style="normal" font-weight="normal" text-decoration="none" x="1381" y="548">Moderator Badge.</text></g></g><g transform="translate(-310,-134) scale(1,1)"><rect fill="#C0C0C0" stroke="none" x="1719" y="567" width="130" height="34" opacity="0.2"/></g><g transform="translate(-310,-134) scale(1,1)"><rect fill="#ffffff" stroke="none" x="1712" y="560" width="130" height="34"/></g><g transform="translate(-310,-134) scale(1,1)"><path fill="none" stroke="#000000" d="M 1712 560 L 1842 560 L 1842 594 L 1712 594 L 1712 560 Z Z" stroke-miterlimit="10"/></g><g transform="translate(-310,-134) scale(1,1)"><path fill="none" stroke="#000000" d="M 1712 585 L 1842 585" stroke-miterlimit="10"/></g><g transform="translate(-310,-134) scale(1,1)"><g><path fill="none" stroke="none"/><text fill="#000000" stroke="none" font-family="Arial" font-size="13px" font-style="normal" font-weight="bold" text-decoration="none" x="1736.5" y="579.5">TrustedBadge</text></g></g><g transform="translate(-310,-134) scale(1,1)"><rect fill="#C0C0C0" stroke="none" x="1599" y="567" width="111" height="34" opacity="0.2"/></g><g transform="translate(-310,-134) scale(1,1)"><rect fill="#ffffff" stroke="none" x="1592" y="560" width="111" height="34"/></g><g transform="translate(-310,-134) scale(1,1)"><path fill="none" stroke="#000000" d="M 1592 560 L 1703 560 L 1703 594 L 1592 594 L 1592 560 Z Z" stroke-miterlimit="10"/></g><g transform="translate(-310,-134) scale(1,1)"><path fill="none" stroke="#000000" d="M 1592 585 L 1703 585" stroke-miterlimit="10"/></g><g transform="translate(-310,-134) scale(1,1)"><g><path fill="none" stroke="none"/><text fill="#000000" stroke="none" font-family="Arial" font-size="13px" font-style="normal" font-weight="bold" text-decoration="none" x="1600" y="579.5">ModeratorBadge</text></g></g><g transform="translate(-310,-134) scale(1,1)"><path fill="none" stroke="#000000" d="M 1680 560 L 1680 480" stroke-miterlimit="10"/></g><g transform="translate(-310,-134) scale(1,1)"><path fill="#FFFFFF" stroke="none" d="M 1688.419035512032 500.3253497152483 L 1680 480 L 1671.580964487968 500.3253497152483"/></g><g transform="translate(-310,-134) scale(1,1)"><path fill="none" stroke="#000000" d="M 1688.419035512032 500.3253497152483 L 1680 480 L 1671.580964487968 500.3253497152483 L 1688.419035512032 500.3253497152483" stroke-miterlimit="10"/></g><g transform="translate(-310,-134) scale(1,1)"><path fill="none" stroke="#000000" d="M 1736 560 L 1736 480" stroke-miterlimit="10"/></g><g transform="translate(-310,-134) scale(1,1)"><path fill="#FFFFFF" stroke="none" d="M 1744.419035512032 500.3253497152483 L 1736 480 L 1727.580964487968 500.3253497152483"/></g><g transform="translate(-310,-134) scale(1,1)"><path fill="none" stroke="#000000" d="M 1744.419035512032 500.3253497152483 L 1736 480 L 1727.580964487968 500.3253497152483 L 1744.419035512032 500.3253497152483" stroke-miterlimit="10"/></g><g transform="translate(-310,-134) scale(1,1)"><rect fill="#C0C0C0" stroke="none" x="1279" y="519" width="72" height="34" opacity="0.2"/></g><g transform="translate(-310,-134) scale(1,1)"><rect fill="#ffffff" stroke="none" x="1272" y="512" width="72" height="34"/></g><g transform="translate(-310,-134) scale(1,1)"><path fill="none" stroke="#000000" d="M 1272 512 L 1344 512 L 1344 546 L 1272 546 L 1272 512 Z Z" stroke-miterlimit="10"/></g><g transform="translate(-310,-134) scale(1,1)"><path fill="none" stroke="#000000" d="M 1272 537 L 1344 537" stroke-miterlimit="10"/></g><g transform="translate(-310,-134) scale(1,1)"><g><path fill="none" stroke="none"/><text fill="#000000" stroke="none" font-family="Arial" font-size="13px" font-style="normal" font-weight="bold" text-decoration="none" x="1279" y="531.5">Moderator</text></g></g><g transform="translate(-310,-134) scale(1,1)"><path fill="none" stroke="#000000" d="M 1376 530 L 1344 530" stroke-miterlimit="10" stroke-dasharray="3"/></g><g transform="translate(-310,-134) scale(1,1)"><rect fill="#C0C0C0" stroke="none" x="811" y="223" width="177" height="47" opacity="0.2"/></g><g transform="translate(-310,-134) scale(1,1)"><rect fill="#ffffff" stroke="none" x="804" y="216" width="177" height="47"/></g><g transform="translate(-310,-134) scale(1,1)"><path fill="none" stroke="#000000" d="M 804 216 L 981 216 L 981 263 L 804 263 L 804 216 Z Z" stroke-miterlimit="10"/></g><g transform="translate(-310,-134) scale(1,1)"><path fill="none" stroke="#000000" d="M 804 241 L 981 241" stroke-miterlimit="10"/></g><g transform="translate(-310,-134) scale(1,1)"><g><path fill="none" stroke="none"/><text fill="#000000" stroke="none" font-family="Arial" font-size="13px" font-style="normal" font-weight="bold" text-decoration="none" x="843.5" y="235.5">MessageContent</text></g></g><g transform="translate(-310,-134) scale(1,1)"><g><path fill="none" stroke="none"/><text fill="#000000" stroke="none" font-family="Arial" font-size="13px" font-style="normal" font-weight="normal" text-decoration="none" x="809" y="258.5">+content: String {NOT NULL}</text></g></g><g transform="translate(-310,-134) scale(1,1)"><path fill="none" stroke="#000000" d="M 892 264 L 892 327" stroke-miterlimit="10"/></g><g transform="translate(-310,-134) scale(1,1)"><path fill="#000000" stroke="none" d="M 887.790482243984 316.83732514237585 L 892 327 L 896.209517756016 316.83732514237585 L 892 305"/></g><g transform="translate(-310,-134) scale(1,1)"><path fill="none" stroke="#000000" d="M 887.790482243984 316.83732514237585 L 892 327 L 896.209517756016 316.83732514237585 L 892 305 L 887.790482243984 316.83732514237585" stroke-miterlimit="10"/></g><g transform="translate(-310,-134) scale(1,1)"><g><path fill="none" stroke="none"/><text fill="#000000" stroke="none" font-family="Arial" font-size="13px" font-style="normal" font-weight="normal" text-decoration="none" x="867.5" y="283.5">1..*</text></g></g><g transform="translate(-310,-134) scale(1,1)"><rect fill="#C0C0C0" stroke="none" x="1047" y="263" width="190" height="47" opacity="0.2"/></g><g transform="translate(-310,-134) scale(1,1)"><rect fill="#ffffff" stroke="none" x="1040" y="256" width="190" height="47"/></g><g transform="translate(-310,-134) scale(1,1)"><path fill="none" stroke="#000000" d="M 1040 256 L 1230 256 L 1230 303 L 1040 303 L 1040 256 Z Z" stroke-miterlimit="10"/></g><g transform="translate(-310,-134) scale(1,1)"><path fill="none" stroke="#000000" d="M 1040 281 L 1230 281" stroke-miterlimit="10"/></g><g transform="translate(-310,-134) scale(1,1)"><g><path fill="none" stroke="none"/><text fill="#000000" stroke="none" font-family="Arial" font-size="13px" font-style="normal" font-weight="bold" text-decoration="none" x="1101.5" y="275.5">TimeStamp</text></g></g><g transform="translate(-310,-134) scale(1,1)"><g><path fill="none" stroke="none"/><text fill="#000000" stroke="none" font-family="Arial" font-size="13px" font-style="normal" font-weight="normal" text-decoration="none" x="1045" y="298.5">+timeStamp: Date {NOT NULL}</text></g></g><g transform="translate(-310,-134) scale(1,1)"><path fill="none" stroke="#000000" d="M 981 248 L 1024 248 L 1024 336 L 1224 336" stroke-miterlimit="10"/></g><g transform="translate(-310,-134) scale(1,1)"><g><path fill="none" stroke="none"/><text fill="#000000" stroke="none" font-family="Arial" font-size="13px" font-style="normal" font-weight="normal" text-decoration="none" x="999" y="266.5">*</text></g></g><g transform="translate(-310,-134) scale(1,1)"><g><path fill="none" stroke="none"/><text fill="#000000" stroke="none" font-family="Arial" font-size="13px" font-style="normal" font-weight="normal" text-decoration="none" x="1210.5" y="330.5">1</text></g></g><g transform="translate(-310,-134) scale(1,1)"><path fill="none" stroke="#000000" d="M 1039 280 L 1024 280 L 1024 291" stroke-miterlimit="10" stroke-dasharray="3"/></g><g transform="translate(-310,-134) scale(1,1)"><path fill="none" stroke="#000000" d="M 1304 512 L 1304 443" stroke-miterlimit="10"/></g><g transform="translate(-310,-134) scale(1,1)"><path fill="#FFFFFF" stroke="none" d="M 1312.419035512032 463.3253497152483 L 1304 443 L 1295.580964487968 463.3253497152483"/></g><g transform="translate(-310,-134) scale(1,1)"><path fill="none" stroke="#000000" d="M 1312.419035512032 463.3253497152483 L 1304 443 L 1295.580964487968 463.3253497152483 L 1312.419035512032 463.3253497152483" stroke-miterlimit="10"/></g><g transform="translate(-310,-134) scale(1,1)"><g><path fill="none" stroke="none"/><text fill="#000000" stroke="none" font-family="Arial" font-size="13px" font-style="normal" font-weight="normal" text-decoration="none" x="1317" y="482">{incomplete}</text></g></g><g transform="translate(-310,-134) scale(1,1)"><path fill="#ffffff" stroke="none" d="M 1248 280 L 1477 280 L 1487 290 L 1487 303 L 1248 303 L 1248 280"/></g><g transform="translate(-310,-134) scale(1,1)"><path fill="none" stroke="#000000" d="M 1248 280 L 1477 280 L 1487 290 L 1487 303 L 1248 303 L 1248 280 L 1248 280" stroke-miterlimit="10"/></g><g transform="translate(-310,-134) scale(1,1)"><path fill="none" stroke="#000000" d="M 1477 280 L 1477 290 L 1487 290 L 1477 280" stroke-miterlimit="10"/></g><g transform="translate(-310,-134) scale(1,1)"><g><path fill="none" stroke="none"/><text fill="#000000" stroke="none" font-family="Arial" font-size="13px" font-style="normal" font-weight="normal" text-decoration="none" x="1253" y="298">{reputation = QP + AP + CP/2 - R*10}</text></g></g><g transform="translate(-310,-134) scale(1,1)"><path fill="#ffffff" stroke="none" d="M 1536 640 L 1749 640 L 1759 650 L 1759 702 L 1536 702 L 1536 640"/></g><g transform="translate(-310,-134) scale(1,1)"><path fill="none" stroke="#000000" d="M 1536 640 L 1749 640 L 1759 650 L 1759 702 L 1536 702 L 1536 640 L 1536 640" stroke-miterlimit="10"/></g><g transform="translate(-310,-134) scale(1,1)"><path fill="none" stroke="#000000" d="M 1749 640 L 1749 650 L 1759 650 L 1749 640" stroke-miterlimit="10"/></g><g transform="translate(-310,-134) scale(1,1)"><g><path fill="none" stroke="none"/><text fill="#000000" stroke="none" font-family="Arial" font-size="13px" font-style="normal" font-weight="normal" text-decoration="none" x="1541" y="658">Moderator badges are attributed by</text><text fill="#000000" stroke="none" font-family="Arial" font-size="13px" font-style="normal" font-weight="normal" text-decoration="none" x="1541" y="671">the system to users with reputation</text><text fill="#000000" stroke="none" font-family="Arial" font-size="13px" font-style="normal" font-weight="normal" text-decoration="none" x="1541" y="684">over 500 points, and cannot be</text><text fill="#000000" stroke="none" font-family="Arial" font-size="13px" font-style="normal" font-weight="normal" text-decoration="none" x="1541" y="697">manually created.</text></g></g><g transform="translate(-310,-134) scale(1,1)"><path fill="none" stroke="#000000" d="M 1360 319 L 1364 305" stroke-miterlimit="10" stroke-dasharray="3"/></g><g transform="translate(-310,-134) scale(1,1)"><path fill="none" stroke="#000000" d="M 1648 639 L 1647 595" stroke-miterlimit="10" stroke-dasharray="3"/></g><g transform="translate(-310,-134) scale(1,1)"><path fill="none" stroke="#000000" d="M 1591 564 L 1529 550" stroke-miterlimit="10" stroke-dasharray="3"/></g><g transform="translate(-310,-134) scale(1,1)"><path fill="#ffffff" stroke="none" d="M 864 144 L 1109 144 L 1119 154 L 1119 183 L 864 183 L 864 144"/></g><g transform="translate(-310,-134) scale(1,1)"><path fill="none" stroke="#000000" d="M 864 144 L 1109 144 L 1119 154 L 1119 183 L 864 183 L 864 144 L 864 144" stroke-miterlimit="10"/></g><g transform="translate(-310,-134) scale(1,1)"><path fill="none" stroke="#000000" d="M 1109 144 L 1109 154 L 1119 154 L 1109 144" stroke-miterlimit="10"/></g><g transform="translate(-310,-134) scale(1,1)"><g><path fill="none" stroke="none"/><text fill="#000000" stroke="none" font-family="Arial" font-size="13px" font-style="normal" font-weight="normal" text-decoration="none" x="869" y="162">This relation implies that the User is the</text><text fill="#000000" stroke="none" font-family="Arial" font-size="13px" font-style="normal" font-weight="normal" text-decoration="none" x="869" y="175">message's Owner, or is a Moderator.</text></g></g><g transform="translate(-310,-134) scale(1,1)"><path fill="none" stroke="#000000" d="M 1024 292 L 997 185" stroke-miterlimit="10" stroke-dasharray="3"/></g><g transform="translate(-310,-134) scale(1,1)"><path fill="none" stroke="#000000" d="M 1144 377 L 1144 400 L 1116 400 L 1116 400" stroke-miterlimit="10" stroke-dasharray="3"/></g><g transform="translate(-310,-134) scale(1,1)"><path fill="none" stroke="#000000" d="M 1144 351 L 1144 336 L 1024 336 L 1024 293" stroke-miterlimit="10" stroke-dasharray="3"/></g><g transform="translate(-310,-134) scale(1,1)"><path fill="#ffffff" stroke="none" d="M 320 576 L 517 576 L 527 586 L 527 625 L 320 625 L 320 576"/></g><g transform="translate(-310,-134) scale(1,1)"><path fill="none" stroke="#000000" d="M 320 576 L 517 576 L 527 586 L 527 625 L 320 625 L 320 576 L 320 576" stroke-miterlimit="10"/></g><g transform="translate(-310,-134) scale(1,1)"><path fill="none" stroke="#000000" d="M 517 576 L 517 586 L 527 586 L 517 576" stroke-miterlimit="10"/></g><g transform="translate(-310,-134) scale(1,1)"><g><path fill="none" stroke="none"/><text fill="#000000" stroke="none" font-family="Arial" font-size="13px" font-style="normal" font-weight="normal" text-decoration="none" x="325" y="594">{numPosts = number of</text><text fill="#000000" stroke="none" font-family="Arial" font-size="13px" font-style="normal" font-weight="normal" text-decoration="none" x="325" y="607">Questions with a given category.}</text></g></g><g transform="translate(-310,-134) scale(1,1)"><path fill="none" stroke="#000000" d="M 420 656 L 420 626" stroke-miterlimit="10" stroke-dasharray="3"/></g><g transform="translate(-310,-134) scale(1,1)"><path fill="#ffffff" stroke="none" d="M 504 352 L 733 352 L 743 362 L 743 391 L 504 391 L 504 352"/></g><g transform="translate(-310,-134) scale(1,1)"><path fill="none" stroke="#000000" d="M 504 352 L 733 352 L 743 362 L 743 391 L 504 391 L 504 352 L 504 352" stroke-miterlimit="10"/></g><g transform="translate(-310,-134) scale(1,1)"><path fill="none" stroke="#000000" d="M 733 352 L 733 362 L 743 362 L 733 352" stroke-miterlimit="10"/></g><g transform="translate(-310,-134) scale(1,1)"><g><path fill="none" stroke="none"/><text fill="#000000" stroke="none" font-family="Arial" font-size="13px" font-style="normal" font-weight="normal" text-decoration="none" x="509" y="370">A Message is automatically banned</text><text fill="#000000" stroke="none" font-family="Arial" font-size="13px" font-style="normal" font-weight="normal" text-decoration="none" x="509" y="383">after ( 5 + score^(1/3) ) reports.</text></g></g><g transform="translate(-310,-134) scale(1,1)"><path fill="none" stroke="#000000" d="M 745 373 L 775 373" stroke-miterlimit="10" stroke-dasharray="3"/></g></g></svg>