<svg version="1.1" xmlns="http://www.w3.org/2000/svg" xmlns:xlink="http://www.w3.org/1999/xlink" width="1452" height="441"><defs/><g><g transform="translate(-230,-174) scale(1,1)"><rect fill="#C0C0C0" stroke="none" x="687" y="199" width="233" height="107" opacity="0.2"/></g><g transform="translate(-230,-174) scale(1,1)"><rect fill="#ffffff" stroke="none" x="680" y="192" width="233" height="107"/></g><g transform="translate(-230,-174) scale(1,1)"><path fill="none" stroke="#000000" d="M 680 192 L 913 192 L 913 299 L 680 299 L 680 192 Z Z" stroke-miterlimit="10"/></g><g transform="translate(-230,-174) scale(1,1)"><path fill="none" stroke="#000000" d="M 680 217 L 913 217" stroke-miterlimit="10"/></g><g transform="translate(-230,-174) scale(1,1)"><g><path fill="none" stroke="none"/><text fill="#000000" stroke="none" font-family="Arial" font-size="13px" font-style="italic" font-weight="bold" text-decoration="none" x="770" y="211.5">Message</text></g></g><g transform="translate(-230,-174) scale(1,1)"><g><path fill="none" stroke="none"/><text fill="#000000" stroke="none" font-family="Arial" font-size="13px" font-style="normal" font-weight="normal" text-decoration="none" x="685" y="234.5">+content: String {NOT NULL}</text></g></g><g transform="translate(-230,-174) scale(1,1)"><g><path fill="none" stroke="none"/><text fill="#000000" stroke="none" font-family="Arial" font-size="13px" font-style="normal" font-weight="normal" text-decoration="none" x="685" y="249.5">+creationDate: Date {NOT NULL}</text></g></g><g transform="translate(-230,-174) scale(1,1)"><g><path fill="none" stroke="none"/><text fill="#000000" stroke="none" font-family="Arial" font-size="13px" font-style="normal" font-weight="normal" text-decoration="none" x="685" y="264.5">+score: Integer {NOT NULL} = 0</text></g></g><g transform="translate(-230,-174) scale(1,1)"><g><path fill="none" stroke="none"/><text fill="#000000" stroke="none" font-family="Arial" font-size="13px" font-style="normal" font-weight="normal" text-decoration="none" x="685" y="279.5">+numReports: Integer {NOT NULL} = 0</text></g></g><g transform="translate(-230,-174) scale(1,1)"><rect fill="#C0C0C0" stroke="none" x="551" y="545" width="155" height="57" opacity="0.2"/></g><g transform="translate(-230,-174) scale(1,1)"><rect fill="#ffffff" stroke="none" x="544" y="538" width="155" height="57"/></g><g transform="translate(-230,-174) scale(1,1)"><path fill="none" stroke="#000000" d="M 544 538 L 699 538 L 699 595 L 544 595 L 544 538 Z Z" stroke-miterlimit="10"/></g><g transform="translate(-230,-174) scale(1,1)"><path fill="none" stroke="#000000" d="M 544 563 L 699 563" stroke-miterlimit="10"/></g><g transform="translate(-230,-174) scale(1,1)"><g><path fill="none" stroke="none"/><text fill="#000000" stroke="none" font-family="Arial" font-size="13px" font-style="normal" font-weight="bold" text-decoration="none" x="595.5" y="557.5">Question</text></g></g><g transform="translate(-230,-174) scale(1,1)"><g><path fill="none" stroke="none"/><text fill="#000000" stroke="none" font-family="Arial" font-size="13px" font-style="normal" font-weight="normal" text-decoration="none" x="549" y="580.5">+title: String {NOT NULL}</text></g></g><g transform="translate(-230,-174) scale(1,1)"><rect fill="#C0C0C0" stroke="none" x="847" y="552" width="80" height="47" opacity="0.2"/></g><g transform="translate(-230,-174) scale(1,1)"><rect fill="#ffffff" stroke="none" x="840" y="545" width="80" height="47"/></g><g transform="translate(-230,-174) scale(1,1)"><path fill="none" stroke="#000000" d="M 840 545 L 920 545 L 920 592 L 840 592 L 840 545 Z Z" stroke-miterlimit="10"/></g><g transform="translate(-230,-174) scale(1,1)"><path fill="none" stroke="#000000" d="M 840 570 L 920 570" stroke-miterlimit="10"/></g><g transform="translate(-230,-174) scale(1,1)"><g><path fill="none" stroke="none"/><text fill="#000000" stroke="none" font-family="Arial" font-size="13px" font-style="normal" font-weight="bold" text-decoration="none" x="858.5" y="564.5">Answer</text></g></g><g transform="translate(-230,-174) scale(1,1)"><rect fill="#C0C0C0" stroke="none" x="863" y="411" width="77" height="39" opacity="0.2"/></g><g transform="translate(-230,-174) scale(1,1)"><rect fill="#ffffff" stroke="none" x="856" y="404" width="77" height="39"/></g><g transform="translate(-230,-174) scale(1,1)"><path fill="none" stroke="#000000" d="M 856 404 L 933 404 L 933 443 L 856 443 L 856 404 Z Z" stroke-miterlimit="10"/></g><g transform="translate(-230,-174) scale(1,1)"><path fill="none" stroke="#000000" d="M 856 429 L 933 429" stroke-miterlimit="10"/></g><g transform="translate(-230,-174) scale(1,1)"><g><path fill="none" stroke="none"/><text fill="#000000" stroke="none" font-family="Arial" font-size="13px" font-style="normal" font-weight="bold" text-decoration="none" x="866.5" y="423.5">Comment</text></g></g><g transform="translate(-230,-174) scale(1,1)"><path fill="none" stroke="#000000" d="M 883 403 L 826 300" stroke-miterlimit="10"/></g><g transform="translate(-230,-174) scale(1,1)"><path fill="#FFFFFF" stroke="none" d="M 843.2078276806636 313.70732163891205 L 826 300 L 828.475231559707 321.8603117252666"/></g><g transform="translate(-230,-174) scale(1,1)"><path fill="none" stroke="#000000" d="M 843.2078276806636 313.70732163891205 L 826 300 L 828.475231559707 321.8603117252666 L 843.2078276806636 313.70732163891205" stroke-miterlimit="10"/></g><g transform="translate(-230,-174) scale(1,1)"><rect fill="#C0C0C0" stroke="none" x="695" y="411" width="104" height="39" opacity="0.2"/></g><g transform="translate(-230,-174) scale(1,1)"><rect fill="#ffffff" stroke="none" x="688" y="404" width="104" height="39"/></g><g transform="translate(-230,-174) scale(1,1)"><path fill="none" stroke="#000000" d="M 688 404 L 792 404 L 792 443 L 688 443 L 688 404 Z Z" stroke-miterlimit="10"/></g><g transform="translate(-230,-174) scale(1,1)"><path fill="none" stroke="#000000" d="M 688 429 L 792 429" stroke-miterlimit="10"/></g><g transform="translate(-230,-174) scale(1,1)"><g><path fill="none" stroke="none"/><text fill="#000000" stroke="none" font-family="Arial" font-size="13px" font-style="normal" font-weight="bold" text-decoration="none" x="700" y="423.5">Commentable</text></g></g><g transform="translate(-230,-174) scale(1,1)"><path fill="none" stroke="#000000" d="M 645 537 L 723 444" stroke-miterlimit="10"/></g><g transform="translate(-230,-174) scale(1,1)"><path fill="#FFFFFF" stroke="none" d="M 716.3892748546161 464.9832865169446 L 723 444 L 703.4880872334269 454.1629356088504"/></g><g transform="translate(-230,-174) scale(1,1)"><path fill="none" stroke="#000000" d="M 716.3892748546161 464.9832865169446 L 723 444 L 703.4880872334269 454.1629356088504 L 716.3892748546161 464.9832865169446" stroke-miterlimit="10"/></g><g transform="translate(-230,-174) scale(1,1)"><path fill="none" stroke="#000000" d="M 857 544 L 760 444" stroke-miterlimit="10"/></g><g transform="translate(-230,-174) scale(1,1)"><path fill="#FFFFFF" stroke="none" d="M 780.194799551175 452.72754668207847 L 760 444 L 768.1085722653191 464.4511871493588"/></g><g transform="translate(-230,-174) scale(1,1)"><path fill="none" stroke="#000000" d="M 780.194799551175 452.72754668207847 L 760 444 L 768.1085722653191 464.4511871493588 L 780.194799551175 452.72754668207847" stroke-miterlimit="10"/></g><g transform="translate(-230,-174) scale(1,1)"><path fill="none" stroke="#000000" d="M 746 403 L 779 300" stroke-miterlimit="10"/></g><g transform="translate(-230,-174) scale(1,1)"><path fill="#FFFFFF" stroke="none" d="M 780.8160968338983 321.92491259480653 L 779 300 L 764.7809200138308 316.78742875925093"/></g><g transform="translate(-230,-174) scale(1,1)"><path fill="none" stroke="#000000" d="M 780.8160968338983 321.92491259480653 L 779 300 L 764.7809200138308 316.78742875925093 L 780.8160968338983 321.92491259480653" stroke-miterlimit="10"/></g><g transform="translate(-230,-174) scale(1,1)"><path fill="none" stroke="#000000" d="M 840 552 L 699 552" stroke-miterlimit="10"/></g><g transform="translate(-230,-174) scale(1,1)"><path fill="#000000" stroke="none" d="M 709.1626748576241 547.790482243984 L 699 552 L 709.1626748576241 556.209517756016 L 721 552"/></g><g transform="translate(-230,-174) scale(1,1)"><path fill="none" stroke="#000000" d="M 709.1626748576241 547.790482243984 L 699 552 L 709.1626748576241 556.209517756016 L 721 552 L 709.1626748576241 547.790482243984" stroke-miterlimit="10"/></g><g transform="translate(-230,-174) scale(1,1)"><g><path fill="none" stroke="none"/><text fill="#000000" stroke="none" font-family="Arial" font-size="13px" font-style="normal" font-weight="normal" text-decoration="none" x="826.132568359375" y="550.5">*</text></g></g><g transform="translate(-230,-174) scale(1,1)"><path fill="none" stroke="#000000" d="M 855 423 L 793 423" stroke-miterlimit="10"/></g><g transform="translate(-230,-174) scale(1,1)"><path fill="#000000" stroke="none" d="M 803.1626748576241 418.790482243984 L 793 423 L 803.1626748576241 427.209517756016 L 815 423"/></g><g transform="translate(-230,-174) scale(1,1)"><path fill="none" stroke="#000000" d="M 803.1626748576241 418.790482243984 L 793 423 L 803.1626748576241 427.209517756016 L 815 423 L 803.1626748576241 418.790482243984" stroke-miterlimit="10"/></g><g transform="translate(-230,-174) scale(1,1)"><g><path fill="none" stroke="none"/><text fill="#000000" stroke="none" font-family="Arial" font-size="13px" font-style="normal" font-weight="normal" text-decoration="none" x="835.132568359375" y="425.5">*</text></g></g><g transform="translate(-230,-174) scale(1,1)"><rect fill="#C0C0C0" stroke="none" x="1135" y="191" width="232" height="123" opacity="0.2"/></g><g transform="translate(-230,-174) scale(1,1)"><rect fill="#ffffff" stroke="none" x="1128" y="184" width="232" height="123"/></g><g transform="translate(-230,-174) scale(1,1)"><path fill="none" stroke="#000000" d="M 1128 184 L 1360 184 L 1360 307 L 1128 307 L 1128 184 Z Z" stroke-miterlimit="10"/></g><g transform="translate(-230,-174) scale(1,1)"><path fill="none" stroke="#000000" d="M 1128 209 L 1360 209" stroke-miterlimit="10"/></g><g transform="translate(-230,-174) scale(1,1)"><g><path fill="none" stroke="none"/><text fill="#000000" stroke="none" font-family="Arial" font-size="13px" font-style="normal" font-weight="bold" text-decoration="none" x="1230.5" y="203.5">User</text></g></g><g transform="translate(-230,-174) scale(1,1)"><g><path fill="none" stroke="none"/><text fill="#000000" stroke="none" font-family="Arial" font-size="13px" font-style="normal" font-weight="normal" text-decoration="none" x="1133" y="226.5">+userName: String {unique}</text></g></g><g transform="translate(-230,-174) scale(1,1)"><g><path fill="none" stroke="none"/><text fill="#000000" stroke="none" font-family="Arial" font-size="13px" font-style="normal" font-weight="normal" text-decoration="none" x="1133" y="241.5">+email: String {unique}</text></g></g><g transform="translate(-230,-174) scale(1,1)"><g><path fill="none" stroke="none"/><text fill="#000000" stroke="none" font-family="Arial" font-size="13px" font-style="normal" font-weight="normal" text-decoration="none" x="1133" y="256.5">+passwordHash: String {NOT NULL}</text></g></g><g transform="translate(-230,-174) scale(1,1)"><g><path fill="none" stroke="none"/><text fill="#000000" stroke="none" font-family="Arial" font-size="13px" font-style="normal" font-weight="normal" text-decoration="none" x="1133" y="271.5">+bio: String</text></g></g><g transform="translate(-230,-174) scale(1,1)"><g><path fill="none" stroke="none"/><text fill="#000000" stroke="none" font-family="Arial" font-size="13px" font-style="normal" font-weight="normal" text-decoration="none" x="1133" y="286.5">+/reputation: Integer {NOT NULL}</text></g></g><g transform="translate(-230,-174) scale(1,1)"><path fill="none" stroke="#000000" d="M 1128 248 L 913 248" stroke-miterlimit="10"/></g><g transform="translate(-230,-174) scale(1,1)"><g><path fill="none" stroke="none"/><text fill="#000000" stroke="none" font-family="Arial" font-size="13px" font-style="normal" font-weight="normal" text-decoration="none" x="995.808349609375" y="245.5">+author</text></g></g><g transform="translate(-230,-174) scale(1,1)"><g><path fill="none" stroke="none"/><text fill="#000000" stroke="none" font-family="Arial" font-size="13px" font-style="normal" font-weight="normal" text-decoration="none" x="1102.5" y="243.5">1</text></g></g><g transform="translate(-230,-174) scale(1,1)"><g><path fill="none" stroke="none"/><text fill="#000000" stroke="none" font-family="Arial" font-size="13px" font-style="normal" font-weight="normal" text-decoration="none" x="930.132568359375" y="244.5">*</text></g></g><g transform="translate(-230,-174) scale(1,1)"><path fill="none" stroke="#000000" d="M 840 584 L 699 584" stroke-miterlimit="10"/></g><g transform="translate(-230,-174) scale(1,1)"><g><path fill="none" stroke="none"/><text fill="#000000" stroke="none" font-family="Arial" font-size="13px" font-style="normal" font-weight="normal" text-decoration="none" x="721.44189453125" y="604.5">+correct answer</text></g></g><g transform="translate(-230,-174) scale(1,1)"><g><path fill="none" stroke="none"/><text fill="#000000" stroke="none" font-family="Arial" font-size="13px" font-style="normal" font-weight="normal" text-decoration="none" x="815.5" y="596.5">0..1</text></g></g><g transform="translate(-230,-174) scale(1,1)"><g><path fill="none" stroke="none"/><text fill="#000000" stroke="none" font-family="Arial" font-size="13px" font-style="normal" font-weight="normal" text-decoration="none" x="701.5" y="595.5">0..1</text></g></g><g transform="translate(-230,-174) scale(1,1)"><rect fill="#C0C0C0" stroke="none" x="943" y="327" width="171" height="56" opacity="0.2"/></g><g transform="translate(-230,-174) scale(1,1)"><rect fill="#ffffff" stroke="none" x="936" y="320" width="171" height="56"/></g><g transform="translate(-230,-174) scale(1,1)"><path fill="none" stroke="#000000" d="M 936 320 L 1107 320 L 1107 376 L 936 376 L 936 320 Z Z" stroke-miterlimit="10"/></g><g transform="translate(-230,-174) scale(1,1)"><path fill="none" stroke="#000000" d="M 936 345 L 1107 345" stroke-miterlimit="10"/></g><g transform="translate(-230,-174) scale(1,1)"><g><path fill="none" stroke="none"/><text fill="#000000" stroke="none" font-family="Arial" font-size="13px" font-style="normal" font-weight="bold" text-decoration="none" x="1008" y="339.5">Vote</text></g></g><g transform="translate(-230,-174) scale(1,1)"><g><path fill="none" stroke="none"/><text fill="#000000" stroke="none" font-family="Arial" font-size="13px" font-style="normal" font-weight="normal" text-decoration="none" x="941" y="362.5">+positive: Bool {NOT NULL}</text></g></g><g transform="translate(-230,-174) scale(1,1)"><path fill="none" stroke="#000000" d="M 913 280 L 1128 280" stroke-miterlimit="10"/></g><g transform="translate(-230,-174) scale(1,1)"><g><path fill="none" stroke="none"/><text fill="#000000" stroke="none" font-family="Arial" font-size="13px" font-style="normal" font-weight="normal" text-decoration="none" x="931.132568359375" y="298.5">*</text></g></g><g transform="translate(-230,-174) scale(1,1)"><g><path fill="none" stroke="none"/><text fill="#000000" stroke="none" font-family="Arial" font-size="13px" font-style="normal" font-weight="normal" text-decoration="none" x="1103.132568359375" y="298.5">*</text></g></g><g transform="translate(-230,-174) scale(1,1)"><path fill="none" stroke="#000000" d="M 1021 319 L 1020 280" stroke-miterlimit="10" stroke-dasharray="3"/></g><g transform="translate(-230,-174) scale(1,1)"><rect fill="#C0C0C0" stroke="none" x="1455" y="375" width="224" height="72" opacity="0.2"/></g><g transform="translate(-230,-174) scale(1,1)"><rect fill="#ffffff" stroke="none" x="1448" y="368" width="224" height="72"/></g><g transform="translate(-230,-174) scale(1,1)"><path fill="none" stroke="#000000" d="M 1448 368 L 1672 368 L 1672 440 L 1448 440 L 1448 368 Z Z" stroke-miterlimit="10"/></g><g transform="translate(-230,-174) scale(1,1)"><path fill="none" stroke="#000000" d="M 1448 393 L 1672 393" stroke-miterlimit="10"/></g><g transform="translate(-230,-174) scale(1,1)"><g><path fill="none" stroke="none"/><text fill="#000000" stroke="none" font-family="Arial" font-size="13px" font-style="italic" font-weight="bold" text-decoration="none" x="1541.5" y="387.5">Badge</text></g></g><g transform="translate(-230,-174) scale(1,1)"><g><path fill="none" stroke="none"/><text fill="#000000" stroke="none" font-family="Arial" font-size="13px" font-style="normal" font-weight="normal" text-decoration="none" x="1453" y="410.5">+attainmentDate: Date {NOT NULL}</text></g></g><g transform="translate(-230,-174) scale(1,1)"><g><path fill="none" stroke="none"/><text fill="#000000" stroke="none" font-family="Arial" font-size="13px" font-style="normal" font-weight="normal" text-decoration="none" x="1453" y="425.5">+description: String {NOT NULL}</text></g></g><g transform="translate(-230,-174) scale(1,1)"><path fill="none" stroke="#000000" d="M 1560 368 L 1560 231 L 1360 231" stroke-miterlimit="10"/></g><g transform="translate(-230,-174) scale(1,1)"><g><path fill="none" stroke="none"/><text fill="#000000" stroke="none" font-family="Arial" font-size="13px" font-style="normal" font-weight="normal" text-decoration="none" x="1568.132568359375" y="363.5">*</text></g></g><g transform="translate(-230,-174) scale(1,1)"><g><path fill="none" stroke="none"/><text fill="#000000" stroke="none" font-family="Arial" font-size="13px" font-style="normal" font-weight="normal" text-decoration="none" x="1378.132568359375" y="224.5">*</text></g></g><g transform="translate(-230,-174) scale(1,1)"><rect fill="#C0C0C0" stroke="none" x="1479" y="510" width="56" height="34" opacity="0.2"/></g><g transform="translate(-230,-174) scale(1,1)"><rect fill="#ffffff" stroke="none" x="1472" y="503" width="56" height="34"/></g><g transform="translate(-230,-174) scale(1,1)"><path fill="none" stroke="#000000" d="M 1472 503 L 1528 503 L 1528 537 L 1472 537 L 1472 503 Z Z" stroke-miterlimit="10"/></g><g transform="translate(-230,-174) scale(1,1)"><path fill="none" stroke="#000000" d="M 1472 528 L 1528 528" stroke-miterlimit="10"/></g><g transform="translate(-230,-174) scale(1,1)"><g><path fill="none" stroke="none"/><text fill="#000000" stroke="none" font-family="Arial" font-size="13px" font-style="normal" font-weight="bold" text-decoration="none" x="1478" y="522.5">Trusted</text></g></g><g transform="translate(-230,-174) scale(1,1)"><rect fill="#C0C0C0" stroke="none" x="1582" y="510" width="72" height="34" opacity="0.2"/></g><g transform="translate(-230,-174) scale(1,1)"><rect fill="#ffffff" stroke="none" x="1575" y="503" width="72" height="34"/></g><g transform="translate(-230,-174) scale(1,1)"><path fill="none" stroke="#000000" d="M 1575 503 L 1647 503 L 1647 537 L 1575 537 L 1575 503 Z Z" stroke-miterlimit="10"/></g><g transform="translate(-230,-174) scale(1,1)"><path fill="none" stroke="#000000" d="M 1575 528 L 1647 528" stroke-miterlimit="10"/></g><g transform="translate(-230,-174) scale(1,1)"><g><path fill="none" stroke="none"/><text fill="#000000" stroke="none" font-family="Arial" font-size="13px" font-style="normal" font-weight="bold" text-decoration="none" x="1582" y="522.5">Moderator</text></g></g><g transform="translate(-230,-174) scale(1,1)"><path fill="none" stroke="#000000" d="M 1509 502 L 1541 441" stroke-miterlimit="10"/></g><g transform="translate(-230,-174) scale(1,1)"><path fill="#FFFFFF" stroke="none" d="M 1539.0133252521352 462.9101146379063 L 1541 441 L 1524.1024181767345 455.0879994508109"/></g><g transform="translate(-230,-174) scale(1,1)"><path fill="none" stroke="#000000" d="M 1539.0133252521352 462.9101146379063 L 1541 441 L 1524.1024181767345 455.0879994508109 L 1539.0133252521352 462.9101146379063" stroke-miterlimit="10"/></g><g transform="translate(-230,-174) scale(1,1)"><path fill="none" stroke="#000000" d="M 1603 502 L 1576 441" stroke-miterlimit="10"/></g><g transform="translate(-230,-174) scale(1,1)"><path fill="#FFFFFF" stroke="none" d="M 1591.9252339654113 456.17850200602527 L 1576 441 L 1576.5280192322105 462.9936626256387"/></g><g transform="translate(-230,-174) scale(1,1)"><path fill="none" stroke="#000000" d="M 1591.9252339654113 456.17850200602527 L 1576 441 L 1576.5280192322105 462.9936626256387 L 1591.9252339654113 456.17850200602527" stroke-miterlimit="10"/></g><g transform="translate(-230,-174) scale(1,1)"><rect fill="#C0C0C0" stroke="none" x="247" y="535" width="222" height="77" opacity="0.2"/></g><g transform="translate(-230,-174) scale(1,1)"><rect fill="#ffffff" stroke="none" x="240" y="528" width="222" height="77"/></g><g transform="translate(-230,-174) scale(1,1)"><path fill="none" stroke="#000000" d="M 240 528 L 462 528 L 462 605 L 240 605 L 240 528 Z Z" stroke-miterlimit="10"/></g><g transform="translate(-230,-174) scale(1,1)"><path fill="none" stroke="#000000" d="M 240 553 L 462 553" stroke-miterlimit="10"/></g><g transform="translate(-230,-174) scale(1,1)"><g><path fill="none" stroke="none"/><text fill="#000000" stroke="none" font-family="Arial" font-size="13px" font-style="normal" font-weight="bold" text-decoration="none" x="325" y="547.5">Category</text></g></g><g transform="translate(-230,-174) scale(1,1)"><g><path fill="none" stroke="none"/><text fill="#000000" stroke="none" font-family="Arial" font-size="13px" font-style="normal" font-weight="normal" text-decoration="none" x="245" y="570.5">+name: String {NOT NULL}</text></g></g><g transform="translate(-230,-174) scale(1,1)"><g><path fill="none" stroke="none"/><text fill="#000000" stroke="none" font-family="Arial" font-size="13px" font-style="normal" font-weight="normal" text-decoration="none" x="245" y="585.5">+description: String</text></g></g><g transform="translate(-230,-174) scale(1,1)"><g><path fill="none" stroke="none"/><text fill="#000000" stroke="none" font-family="Arial" font-size="13px" font-style="normal" font-weight="normal" text-decoration="none" x="245" y="600.5">+numPosts: Integer {NOT NULL} = 0</text></g></g><g transform="translate(-230,-174) scale(1,1)"><path fill="none" stroke="#000000" d="M 463 566 L 543 566" stroke-miterlimit="10"/></g><g transform="translate(-230,-174) scale(1,1)"><g><path fill="none" stroke="none"/><text fill="#000000" stroke="none" font-family="Arial" font-size="13px" font-style="normal" font-weight="normal" text-decoration="none" x="472.5" y="584.5">1..5</text></g></g><g transform="translate(-230,-174) scale(1,1)"><g><path fill="none" stroke="none"/><text fill="#000000" stroke="none" font-family="Arial" font-size="13px" font-style="normal" font-weight="normal" text-decoration="none" x="526.132568359375" y="583.5">*</text></g></g><g transform="translate(-230,-174) scale(1,1)"><path fill="none" stroke="#000000" d="M 768 584 L 752 584 L 752 552 L 768 552" stroke-miterlimit="10" stroke-dasharray="3"/></g><g transform="translate(-230,-174) scale(1,1)"><g><path fill="none" stroke="none"/><text fill="#000000" stroke="none" font-family="Arial" font-size="12px" font-style="normal" font-weight="normal" text-decoration="none" x="757" y="577">{belongs to↑}</text></g></g><g transform="translate(-230,-174) scale(1,1)"><rect fill="#C0C0C0" stroke="none" x="1143" y="375" width="197" height="80" opacity="0.2"/></g><g transform="translate(-230,-174) scale(1,1)"><rect fill="#ffffff" stroke="none" x="1136" y="368" width="197" height="80"/></g><g transform="translate(-230,-174) scale(1,1)"><path fill="none" stroke="#000000" d="M 1136 368 L 1333 368 L 1333 448 L 1136 448 L 1136 368 Z Z" stroke-miterlimit="10"/></g><g transform="translate(-230,-174) scale(1,1)"><path fill="none" stroke="#000000" d="M 1136 393 L 1333 393" stroke-miterlimit="10"/></g><g transform="translate(-230,-174) scale(1,1)"><g><path fill="none" stroke="none"/><text fill="#000000" stroke="none" font-family="Arial" font-size="13px" font-style="normal" font-weight="bold" text-decoration="none" x="1202" y="387.5">Notification</text></g></g><g transform="translate(-230,-174) scale(1,1)"><g><path fill="none" stroke="none"/><text fill="#000000" stroke="none" font-family="Arial" font-size="13px" font-style="normal" font-weight="normal" text-decoration="none" x="1141" y="410.5">+description: String {NOT NULL}</text></g></g><g transform="translate(-230,-174) scale(1,1)"><g><path fill="none" stroke="none"/><text fill="#000000" stroke="none" font-family="Arial" font-size="13px" font-style="normal" font-weight="normal" text-decoration="none" x="1141" y="425.5">+date: Date {NOT NULL}</text></g></g><g transform="translate(-230,-174) scale(1,1)"><g><path fill="none" stroke="none"/><text fill="#000000" stroke="none" font-family="Arial" font-size="13px" font-style="normal" font-weight="normal" text-decoration="none" x="1141" y="440.5">+read: Bool {NOT NULL}</text></g></g><g transform="translate(-230,-174) scale(1,1)"><path fill="none" stroke="#000000" d="M 1208 368 L 1208 307" stroke-miterlimit="10"/></g><g transform="translate(-230,-174) scale(1,1)"><path fill="#000000" stroke="none" d="M 1212.2095177560159 317.16267485762415 L 1208 307 L 1203.7904822439841 317.16267485762415 L 1208 329"/></g><g transform="translate(-230,-174) scale(1,1)"><path fill="none" stroke="#000000" d="M 1212.2095177560159 317.16267485762415 L 1208 307 L 1203.7904822439841 317.16267485762415 L 1208 329 L 1212.2095177560159 317.16267485762415" stroke-miterlimit="10"/></g><g transform="translate(-230,-174) scale(1,1)"><g><path fill="none" stroke="none"/><text fill="#000000" stroke="none" font-family="Arial" font-size="13px" font-style="normal" font-weight="normal" text-decoration="none" x="1218.132568359375" y="361.5">*</text></g></g><g transform="translate(-230,-174) scale(1,1)"><g><path fill="none" stroke="none"/><text fill="#000000" stroke="none" font-family="Arial" font-size="13px" font-style="normal" font-weight="normal" text-decoration="none" x="717" y="482">{disjoint,</text><text fill="#000000" stroke="none" font-family="Arial" font-size="13px" font-style="normal" font-weight="normal" text-decoration="none" x="717" y="495">complete}</text></g></g><g transform="translate(-230,-174) scale(1,1)"><g><path fill="none" stroke="none"/><text fill="#000000" stroke="none" font-family="Arial" font-size="13px" font-style="normal" font-weight="normal" text-decoration="none" x="781" y="338">{disjoint,</text><text fill="#000000" stroke="none" font-family="Arial" font-size="13px" font-style="normal" font-weight="normal" text-decoration="none" x="781" y="351">complete}</text></g></g><g transform="translate(-230,-174) scale(1,1)"><path fill="none" stroke="#000000" d="M 913 216 L 1128 216" stroke-miterlimit="10"/></g><g transform="translate(-230,-174) scale(1,1)"><g><path fill="none" stroke="none"/><text fill="#000000" stroke="none" font-family="Arial" font-size="13px" font-style="normal" font-weight="normal" text-decoration="none" x="988.5" y="207.5">+lastEditor</text></g></g><g transform="translate(-230,-174) scale(1,1)"><g><path fill="none" stroke="none"/><text fill="#000000" stroke="none" font-family="Arial" font-size="13px" font-style="normal" font-weight="normal" text-decoration="none" x="931.5" y="212.5">*</text></g></g><g transform="translate(-230,-174) scale(1,1)"><g><path fill="none" stroke="none"/><text fill="#000000" stroke="none" font-family="Arial" font-size="13px" font-style="normal" font-weight="normal" text-decoration="none" x="1102.5" y="211.5">1</text></g></g><g transform="translate(-230,-174) scale(1,1)"><path fill="none" stroke="#000000" d="M 1021 279 L 1040 279 L 1040 249 L 1021 249" stroke-miterlimit="10" stroke-dasharray="3"/></g><g transform="translate(-230,-174) scale(1,1)"><g><path fill="none" stroke="none"/><text fill="#000000" stroke="none" font-family="Arial" font-size="12px" font-style="normal" font-weight="normal" text-decoration="none" x="997" y="265">{XOR}</text></g></g><g transform="translate(-230,-174) scale(1,1)"><path fill="#ffffff" stroke="none" d="M 1224 320 L 1453 320 L 1463 330 L 1463 343 L 1224 343 L 1224 320"/></g><g transform="translate(-230,-174) scale(1,1)"><path fill="none" stroke="#000000" d="M 1224 320 L 1453 320 L 1463 330 L 1463 343 L 1224 343 L 1224 320 L 1224 320" stroke-miterlimit="10"/></g><g transform="translate(-230,-174) scale(1,1)"><path fill="none" stroke="#000000" d="M 1453 320 L 1453 330 L 1463 330 L 1453 320" stroke-miterlimit="10"/></g><g transform="translate(-230,-174) scale(1,1)"><g><path fill="none" stroke="none"/><text fill="#000000" stroke="none" font-family="Arial" font-size="13px" font-style="normal" font-weight="normal" text-decoration="none" x="1229" y="338">{reputation = QP + AP + CP/2 - R*10}</text></g></g><g transform="translate(-230,-174) scale(1,1)"><path fill="none" stroke="#000000" d="M 1329 319 L 1316 308" stroke-miterlimit="10" stroke-dasharray="3"/></g><g transform="translate(-230,-174) scale(1,1)"><rect fill="#C0C0C0" stroke="none" x="1063" y="526" width="166" height="34" opacity="0.2"/></g><g transform="translate(-230,-174) scale(1,1)"><rect fill="#ffffff" stroke="none" x="1056" y="519" width="166" height="34"/></g><g transform="translate(-230,-174) scale(1,1)"><path fill="none" stroke="#000000" d="M 1056 519 L 1222 519 L 1222 553 L 1056 553 L 1056 519 Z Z" stroke-miterlimit="10"/></g><g transform="translate(-230,-174) scale(1,1)"><path fill="none" stroke="#000000" d="M 1056 544 L 1222 544" stroke-miterlimit="10"/></g><g transform="translate(-230,-174) scale(1,1)"><g><path fill="none" stroke="none"/><text fill="#000000" stroke="none" font-family="Arial" font-size="13px" font-style="normal" font-weight="bold" text-decoration="none" x="1066.5" y="538.5">CommentableNotification</text></g></g><g transform="translate(-230,-174) scale(1,1)"><path fill="none" stroke="#000000" d="M 1152 518 L 1204 449" stroke-miterlimit="10"/></g><g transform="translate(-230,-174) scale(1,1)"><path fill="#FFFFFF" stroke="none" d="M 1198.4907006994947 470.29900516966586 L 1204 449 L 1185.0436661170284 460.16500809302454"/></g><g transform="translate(-230,-174) scale(1,1)"><path fill="none" stroke="#000000" d="M 1198.4907006994947 470.29900516966586 L 1204 449 L 1185.0436661170284 460.16500809302454 L 1198.4907006994947 470.29900516966586" stroke-miterlimit="10"/></g><g transform="translate(-230,-174) scale(1,1)"><g><path fill="none" stroke="none"/><text fill="#000000" stroke="none" font-family="Arial" font-size="13px" font-style="normal" font-weight="normal" text-decoration="none" x="1213" y="474">{disjoint,</text><text fill="#000000" stroke="none" font-family="Arial" font-size="13px" font-style="normal" font-weight="normal" text-decoration="none" x="1213" y="487">complete}</text></g></g><g transform="translate(-230,-174) scale(1,1)"><rect fill="#C0C0C0" stroke="none" x="1263" y="526" width="134" height="34" opacity="0.2"/></g><g transform="translate(-230,-174) scale(1,1)"><rect fill="#ffffff" stroke="none" x="1256" y="519" width="134" height="34"/></g><g transform="translate(-230,-174) scale(1,1)"><path fill="none" stroke="#000000" d="M 1256 519 L 1390 519 L 1390 553 L 1256 553 L 1256 519 Z Z" stroke-miterlimit="10"/></g><g transform="translate(-230,-174) scale(1,1)"><path fill="none" stroke="#000000" d="M 1256 544 L 1390 544" stroke-miterlimit="10"/></g><g transform="translate(-230,-174) scale(1,1)"><g><path fill="none" stroke="none"/><text fill="#000000" stroke="none" font-family="Arial" font-size="13px" font-style="normal" font-weight="bold" text-decoration="none" x="1272" y="538.5">BadgeNotification</text></g></g><g transform="translate(-230,-174) scale(1,1)"><path fill="none" stroke="#000000" d="M 1310 518 L 1263 449" stroke-miterlimit="10"/></g><g transform="translate(-230,-174) scale(1,1)"><path fill="#FFFFFF" stroke="none" d="M 1281.400632570841 461.05888556181304 L 1263 449 L 1267.4842923146532 470.53813182327434"/></g><g transform="translate(-230,-174) scale(1,1)"><path fill="none" stroke="#000000" d="M 1281.400632570841 461.05888556181304 L 1263 449 L 1267.4842923146532 470.53813182327434 L 1281.400632570841 461.05888556181304" stroke-miterlimit="10"/></g><g transform="translate(-230,-174) scale(1,1)"><path fill="none" stroke="#000000" d="M 793 438 L 1075 518" stroke-miterlimit="10"/></g><g transform="translate(-230,-174) scale(1,1)"><g><path fill="none" stroke="none"/><text fill="#000000" stroke="none" font-family="Arial" font-size="13px" font-style="normal" font-weight="normal" text-decoration="none" x="806.5" y="461.5">1</text></g></g><g transform="translate(-230,-174) scale(1,1)"><g><path fill="none" stroke="none"/><text fill="#000000" stroke="none" font-family="Arial" font-size="13px" font-style="normal" font-weight="normal" text-decoration="none" x="1039.5" y="530.5">1</text></g></g><g transform="translate(-230,-174) scale(1,1)"><path fill="none" stroke="#000000" d="M 1355 518 L 1494 441" stroke-miterlimit="10"/></g><g transform="translate(-230,-174) scale(1,1)"><g><path fill="none" stroke="none"/><text fill="#000000" stroke="none" font-family="Arial" font-size="13px" font-style="normal" font-weight="normal" text-decoration="none" x="1359.5" y="508.5">1</text></g></g><g transform="translate(-230,-174) scale(1,1)"><g><path fill="none" stroke="none"/><text fill="#000000" stroke="none" font-family="Arial" font-size="13px" font-style="normal" font-weight="normal" text-decoration="none" x="1446.5" y="460.5">1</text></g></g></g></svg>